<?xml version="1.0" standalone="no"?>
<!DOCTYPE svg PUBLIC "-//W3C//DTD SVG 1.1//EN" "http://www.w3.org/Graphics/SVG/1.1/DTD/svg11.dtd" >
<svg xmlns="http://www.w3.org/2000/svg">
<metadata></metadata>
<defs>
<font id="bpg_excelsior_caps_dejavu_2Rg" horiz-adv-x="1303" >
<font-face units-per-em="2048" ascent="1556" descent="-492" />
<missing-glyph horiz-adv-x="651" />
<glyph horiz-adv-x="2048" />
<glyph horiz-adv-x="2048" />
<glyph unicode="&#xd;" horiz-adv-x="2048" />
<glyph unicode=" "  horiz-adv-x="651" />
<glyph unicode="&#x09;" horiz-adv-x="651" />
<glyph unicode="&#xa0;" horiz-adv-x="651" />
<glyph unicode="!" horiz-adv-x="821" d="M309 0v254h203v-254h-203zM309 838v655h203v-655l-20 -357h-162z" />
<glyph unicode="&#x22;" horiz-adv-x="942" d="M197 938v555h170v-555h-170zM575 938v555h170v-555h-170z" />
<glyph unicode="#" horiz-adv-x="1716" d="M158 414v153h352l84 334h-322v154h361l102 415h162l-104 -415h292l105 415h160l-103 -415h312v-154h-351l-82 -334h318v-153h-357l-104 -414h-160l103 414h-293l-103 -414h-161l104 414h-315zM672 567h293l82 334h-291z" />
<glyph unicode="$" d="M170 92v180q206 -129 422 -130v456q-221 36 -321.5 122t-100.5 236q0 163 109 257t313 108v235h100v-232q181 -7 350 -62v-175q-168 85 -350 92v-427q227 -35 334 -125t107 -246q0 -169 -113.5 -266.5t-327.5 -112.5v-303h-100l-1 301q-216 5 -421 92zM354 973 q0 -86 56.5 -134t181.5 -69v410q-116 -13 -177 -66t-61 -141zM692 145q256 35 256 217q0 88 -61.5 140t-194.5 76v-433z" />
<glyph unicode="%" horiz-adv-x="1946" d="M113 1114q0 186 93 296t251 110q157 0 252 -110q94 -109 94 -296q0 -189 -94 -298q-93 -109 -252 -109t-252 109q-92 110 -92 298zM272 1114q0 -132 49 -206t136 -74t136.5 74t49.5 206q0 129 -50 204t-136 75t-135.5 -74.5t-49.5 -204.5zM426 -29l934 1549h160 l-934 -1549h-160zM1143 377q0 187 93 297q95 110 253 110t251 -110t93 -297q0 -188 -94 -297q-93 -109 -250 -109q-160 0 -253 109q-93 110 -93 297zM1303 377q0 -130 49.5 -204.5t136.5 -74.5q85 0 134.5 75t49.5 204q0 131 -49.5 205.5t-134.5 74.5q-87 0 -136.5 -74 t-49.5 -206z" />
<glyph unicode="&#x26;" horiz-adv-x="1597" d="M129 461q0 254 268 452q-98 129 -98 248q0 163 111 260q111 99 295 99q163 0 333 -72v-182q-177 96 -313 96q-104 0 -171 -56q-65 -56 -65 -143q0 -50 29 -103q30 -51 121 -145l508 -520q119 179 131 406h186q-24 -266 -209 -516l279 -285h-252l-143 147 q-206 -176 -463 -176q-240 0 -394 137q-153 138 -153 353zM322 473q0 -146 106 -243t266 -97q189 0 334 127l-530 543q-176 -157 -176 -330z" />
<glyph unicode="'" horiz-adv-x="563" d="M197 938v555h170v-555h-170z" />
<glyph unicode="(" horiz-adv-x="799" d="M176 643q0 442 299 911h160q-264 -453 -264 -911t264 -913h-160q-299 468 -299 913z" />
<glyph unicode=")" horiz-adv-x="799" d="M164 -270q264 455 264 913q0 453 -264 911h160q299 -471 299 -911q0 -445 -299 -913h-160z" />
<glyph unicode="*" horiz-adv-x="1024" d="M61 858l359 195l-359 194l58 99l336 -203v377h114v-377l336 203l58 -99l-359 -194l359 -195l-58 -98l-336 203v-377h-114v377l-336 -203z" />
<glyph unicode="+" horiz-adv-x="1716" d="M217 557v170h557v557h168v-557h557v-170h-557v-557h-168v557h-557z" />
<glyph unicode="," horiz-adv-x="651" d="M158 -238l82 320v172h211v-172l-164 -320h-129z" />
<glyph unicode="-" horiz-adv-x="739" d="M100 479v164h539v-164h-539z" />
<glyph unicode="." horiz-adv-x="651" d="M219 0v254h211v-254h-211z" />
<glyph unicode="/" horiz-adv-x="690" d="M0 -190l520 1683h170l-520 -1683h-170z" />
<glyph unicode="0" d="M135 745q0 378 132.5 576.5t383.5 198.5t383.5 -198.5t132.5 -576.5q0 -377 -132.5 -575.5t-383.5 -198.5t-383.5 198.5t-132.5 575.5zM338 745q0 -614 313 -614q314 0 314 614q0 615 -314 615q-313 0 -313 -615z" />
<glyph unicode="1" d="M225 1237v184l357 72h202v-1323h330v-170h-860v170h330v1139z" />
<glyph unicode="2" d="M150 0v170q197 202 313 319q199 200 250 259q98 110 135 184q39 76 39 149q0 119 -84 194q-83 75 -217 75q-187 0 -426 -133v204q248 99 422 99q231 0 370 -116q138 -116 138 -310q0 -91 -35 -175q-35 -83 -125 -194q-40 -47 -537 -555h705v-170h-948z" />
<glyph unicode="3" d="M156 45v195q171 -99 393 -99q190 0 289.5 75t99.5 218q0 132 -92.5 206.5t-257.5 74.5h-174v166h182q149 0 228 59.5t79 171.5q0 115 -81.5 176.5t-233.5 61.5q-166 0 -387 -74v180q228 64 405 64q230 0 364 -105q134 -104 134 -282q0 -124 -71 -209.5t-202 -118.5 q145 -31 226 -129q82 -97 82 -242q0 -220 -152 -342q-151 -121 -432 -121q-186 0 -399 74z" />
<glyph unicode="4" d="M100 352v195l621 946h254v-973h213v-168h-213v-352h-201v352h-674zM264 520h510v797z" />
<glyph unicode="5" d="M158 35v203q179 -97 389 -97q174 0 274 91q101 92 101 247t-101 247q-100 91 -274 91q-163 0 -326 -74v750h793v-170h-608v-366q88 30 176 30q250 0 396 -137t146 -371q0 -241 -150 -375q-149 -133 -423 -133q-186 0 -393 64z" />
<glyph unicode="6" d="M143 745q0 354 168 564q168 211 451 211q147 0 315 -60v-184q-156 74 -307 74q-200 0 -305.5 -135t-120.5 -408q59 87 148 133.5t196 46.5q224 0 355 -137t131 -371q0 -230 -136 -369t-362 -139q-260 0 -396 198q-137 200 -137 576zM381 479q0 -161 79 -255 q80 -93 216 -93q135 0 215 93q80 95 80 255q0 161 -80 255q-80 93 -215 93q-136 0 -216 -93q-79 -92 -79 -255z" />
<glyph unicode="7" d="M168 1323v170h960v-86l-542 -1407h-211l510 1323h-717z" />
<glyph unicode="8" d="M139 420q0 144 82 242t228 133q-130 32 -202.5 121t-72.5 217q0 180 127 283q128 104 350 104t350 -104q127 -103 127 -283q0 -128 -72.5 -217t-201.5 -121q147 -35 227 -133q82 -98 82 -242q0 -217 -132.5 -333t-379.5 -116t-379.5 116t-132.5 333zM342 420 q0 -136 82 -212q83 -77 227 -77t227 77q83 78 83 212q0 135 -83 212t-227 77t-227 -77q-82 -76 -82 -212zM375 1114q0 -116 72.5 -181t203.5 -65q130 0 203.5 65t73.5 181t-73.5 181t-203.5 65q-131 0 -203.5 -65t-72.5 -181z" />
<glyph unicode="9" d="M129 1012q0 230 136 369t362 139q259 0 395.5 -198.5t136.5 -576.5q0 -353 -168 -564q-167 -210 -450 -210q-148 0 -316 60v184q156 -74 307 -74q200 0 305.5 134.5t120.5 408.5q-58 -86 -147 -132t-197 -46q-224 0 -355 135q-130 136 -130 371zM332 1012q0 -163 79 -255 q79 -93 216 -93q135 0 215 93q80 94 80 255q0 160 -80 254q-79 94 -215 94q-137 0 -216 -94q-79 -92 -79 -254z" />
<glyph unicode=":" horiz-adv-x="690" d="M240 0v254h211v-254h-211zM240 805v254h211v-254h-211z" />
<glyph unicode=";" horiz-adv-x="690" d="M158 -238l82 320v172h211v-172l-164 -320h-129zM240 805v254h211v-254h-211z" />
<glyph unicode="&#x3c;" horiz-adv-x="1716" d="M217 559v166l1282 465v-182l-1032 -367l1032 -365v-182z" />
<glyph unicode="=" horiz-adv-x="1716" d="M217 352v170h1282v-170h-1282zM217 762v168h1282v-168h-1282z" />
<glyph unicode="&#x3e;" horiz-adv-x="1716" d="M217 94v182l1030 365l-1030 367v182l1282 -465v-166z" />
<glyph unicode="?" horiz-adv-x="1087" d="M147 1219v188q186 113 390 113q185 0 295 -97q112 -97 112 -256q0 -76 -36 -145q-37 -70 -126 -154l-88 -86q-46 -46 -65.5 -72.5t-28.5 -52.5q-12 -42 -12 -133v-123h-191v154q0 103 28 166q30 67 118 151l90 89q108 101 108 196q0 89 -66 144q-64 55 -173 55 q-156 0 -355 -137zM391 0v254h203v-254h-203z" />
<glyph unicode="@" horiz-adv-x="2048" d="M135 543q0 182 68 347t194 290q129 127 298 194.5t358 67.5q211 0 393 -87q183 -88 305 -247q154 -202 154 -451q0 -263 -159 -415q-160 -152 -439 -158v154q-117 -150 -318 -150q-172 0 -280 124q-107 125 -107 325q0 201 108 325q108 125 279 125q200 0 318 -151v131 h143v-736q146 23 228 133q83 113 83 289q0 215 -127 375q-104 131 -253.5 200.5t-325.5 69.5q-251 0 -445 -129q-158 -102 -246 -268q-88 -164 -88 -358q0 -159 57.5 -298t166.5 -245q105 -104 243 -158.5t295 -54.5q129 0 253.5 43.5t228.5 124.5l90 -111 q-125 -97 -272.5 -148.5t-299.5 -51.5q-185 0 -349 65.5t-292 190.5t-195 289.5t-67 353.5zM762 537q0 -142 71 -225q71 -81 195 -81q123 0 193 82q71 83 71 224q0 139 -72 222t-194 83q-121 0 -193 -82q-71 -83 -71 -223z" />
<glyph unicode="A" horiz-adv-x="1401" d="M16 0l570 1493h229l569 -1493h-210l-136 383h-673l-136 -383h-213zM426 551h549l-275 743z" />
<glyph unicode="B" horiz-adv-x="1405" d="M201 0v1493h516q231 0 356 -96t125 -273q0 -137 -64 -218t-188 -101q149 -32 231.5 -133.5t82.5 -253.5q0 -200 -136 -309t-387 -109h-536zM403 166h324q163 0 241.5 67.5t78.5 206.5q0 140 -78.5 206.5t-241.5 66.5h-324v-547zM403 877h299q293 0 293 225t-293 225h-299 v-450z" />
<glyph unicode="C" horiz-adv-x="1430" d="M115 745q0 360 195 567q195 208 534 208q267 0 475 -142v-213q-202 189 -463 189q-256 0 -392 -156.5t-136 -452.5q0 -295 136 -451.5t392 -156.5q261 0 463 189v-211q-211 -144 -475 -144q-339 0 -534 207q-195 208 -195 567z" />
<glyph unicode="D" horiz-adv-x="1577" d="M201 0v1493h415q435 0 637 -181q203 -180 203 -564q0 -386 -204 -567q-203 -181 -636 -181h-415zM403 166h244q309 0 452 140q144 140 144 442q0 300 -144 439q-143 140 -452 140h-244v-1161z" />
<glyph unicode="E" horiz-adv-x="1294" d="M201 0v1493h944v-170h-742v-442h711v-170h-711v-541h760v-170h-962z" />
<glyph unicode="F" horiz-adv-x="1178" d="M201 0v1493h858v-170h-656v-440h592v-170h-592v-713h-202z" />
<glyph unicode="G" horiz-adv-x="1587" d="M115 745q0 365 197 570q198 205 548 205q294 0 520 -142v-215q-224 191 -503 191q-549 0 -549 -609q0 -608 549 -608q212 0 342 76v401h-330v166h530v-641q-236 -168 -559 -168q-350 0 -548 204q-197 206 -197 570z" />
<glyph unicode="H" horiz-adv-x="1540" d="M201 0v1493h202v-612h734v612h202v-1493h-202v711h-734v-711h-202z" />
<glyph unicode="I" horiz-adv-x="604" d="M201 0v1493h202v-1493h-202z" />
<glyph unicode="J" horiz-adv-x="604" d="M-106 -240h63q133 0 189 75q55 74 55 269v1389h202v-1389q0 -271 -103 -392q-102 -122 -329 -122h-77v170z" />
<glyph unicode="K" horiz-adv-x="1343" d="M201 0v1493h202v-631l670 631h260l-741 -696l794 -797h-266l-717 719v-719h-202z" />
<glyph unicode="L" horiz-adv-x="1141" d="M201 0v1493h202v-1323h727v-170h-929z" />
<glyph unicode="M" horiz-adv-x="1767" d="M201 0v1493h301l381 -1016l383 1016h301v-1493h-197v1311l-385 -1024h-203l-385 1024v-1311h-196z" />
<glyph unicode="N" horiz-adv-x="1532" d="M201 0v1493h272l662 -1249v1249h196v-1493h-272l-662 1249v-1249h-196z" />
<glyph unicode="O" horiz-adv-x="1612" d="M115 745q0 353 188 564q189 211 504 211t502 -211q188 -211 188 -564q0 -352 -188 -564q-187 -210 -502 -210t-504 210q-188 211 -188 564zM328 745q0 -283 129 -446q131 -164 350 -164q220 0 348 164q129 163 129 446t-129 447q-128 164 -348 164q-219 0 -350 -164 q-129 -164 -129 -447z" />
<glyph unicode="P" horiz-adv-x="1235" d="M201 0v1493h456q251 0 379.5 -113.5t128.5 -332.5q0 -221 -128.5 -334t-379.5 -113h-254v-600h-202zM403 766h254q141 0 218 73t77 208q0 134 -77 207t-218 73h-254v-561z" />
<glyph unicode="Q" horiz-adv-x="1612" d="M115 745q0 353 188 564q189 211 504 211t502 -211q188 -211 188 -564q0 -260 -105 -445q-103 -184 -302 -273l266 -291h-244l-221 239q-59 -4 -84 -4q-315 0 -504 210q-188 212 -188 564zM328 745q0 -283 129 -446q131 -164 350 -164q220 0 348 164q129 163 129 446 t-129 447q-128 164 -348 164q-219 0 -350 -164q-129 -164 -129 -447z" />
<glyph unicode="R" horiz-adv-x="1423" d="M201 0v1493h456q508 0 508 -430q0 -141 -65.5 -234t-190.5 -129q127 -42 250 -292l205 -408h-217l-191 383q-73 149 -144 199q-68 49 -189 49h-220v-631h-202zM403 797h254q146 0 220.5 67.5t74.5 198.5q0 264 -295 264h-254v-530z" />
<glyph unicode="S" horiz-adv-x="1300" d="M135 1094q0 198 139 312q140 114 385 114q210 0 437 -76v-197q-228 109 -414 109q-165 0 -254.5 -64t-89.5 -182q0 -99 59 -150q60 -50 226 -81l122 -25q225 -43 333 -151t108 -291q0 -217 -145.5 -329t-426.5 -112q-215 0 -473 95v208q248 -139 473 -139q173 0 267 68 t94 194q0 110 -68 172t-221 93l-123 24q-227 45 -327 141q-101 96 -101 267z" />
<glyph unicode="T" horiz-adv-x="1251" d="M-6 1323v170h1263v-170h-530v-1323h-203v1323h-530z" />
<glyph unicode="U" horiz-adv-x="1499" d="M178 561v932h203v-907q0 -240 87 -346q87 -105 282 -105q194 0 281 105q87 106 87 346v907h203v-932q0 -292 -144.5 -441t-426.5 -149q-283 0 -427.5 149t-144.5 441z" />
<glyph unicode="V" horiz-adv-x="1401" d="M16 1493h211l473 -1257l474 1257h210l-569 -1493h-229z" />
<glyph unicode="W" horiz-adv-x="2025" d="M68 1493h204l314 -1262l313 1262h227l314 -1262l313 1262h205l-375 -1493h-254l-315 1296l-318 -1296h-254z" />
<glyph unicode="X" horiz-adv-x="1403" d="M61 0l533 797l-465 696h217l371 -555l373 555h217l-480 -717l512 -776h-217l-420 635l-423 -635h-218z" />
<glyph unicode="Y" horiz-adv-x="1251" d="M-4 1493h217l414 -614l411 614h217l-528 -782v-711h-203v711z" />
<glyph unicode="Z" horiz-adv-x="1403" d="M92 0v154l944 1169h-921v170h1173v-154l-944 -1169h967v-170h-1219z" />
<glyph unicode="[" horiz-adv-x="799" d="M176 -270v1826h424v-143h-240v-1540h240v-143h-424z" />
<glyph unicode="\" horiz-adv-x="690" d="M0 1493h170l520 -1683h-170z" />
<glyph unicode="]" horiz-adv-x="799" d="M199 -127h239v1540h-239v143h424v-1826h-424v143z" />
<glyph unicode="^" horiz-adv-x="1716" d="M217 936l543 557h196l543 -557h-201l-440 395l-440 -395h-201z" />
<glyph unicode="_" horiz-adv-x="1024" d="M-20 -340h1064v-143h-1064v143z" />
<glyph unicode="`" horiz-adv-x="1024" d="M170 1638h197l282 -374h-153z" />
<glyph unicode="a" horiz-adv-x="1255" d="M123 326q0 381 504 381h258v18q0 127 -83.5 196.5t-234.5 69.5q-193 0 -362 -92v170q202 78 381 78q243 0 363 -126t120 -382v-639h-184v170q-63 -102 -157 -150.5t-230 -48.5q-172 0 -274 96q-101 98 -101 259zM307 338q0 -98 64.5 -155.5t175.5 -57.5q153 0 245 108 q93 109 93 289v41h-183q-224 0 -309 -51q-86 -51 -86 -174z" />
<glyph unicode="b" horiz-adv-x="1300" d="M186 0v1556h185v-606q114 197 358 197q203 0 331 -162q128 -163 128 -426t-128 -426q-128 -162 -331 -162q-244 0 -358 197v-168h-185zM371 559q0 -203 83 -319q84 -115 230 -115q147 0 229 115q84 115 84 319q0 203 -84 318q-83 116 -229 116t-230 -116 q-83 -116 -83 -318z" />
<glyph unicode="c" horiz-adv-x="1126" d="M113 559q0 273 150 431q151 157 413 157q173 0 323 -70v-172q-157 86 -315 86q-179 0 -278 -114q-99 -113 -99 -318t99 -319q99 -113 278 -113q158 0 315 86v-170q-154 -72 -335 -72q-254 0 -402 159q-149 160 -149 429z" />
<glyph unicode="d" horiz-adv-x="1300" d="M113 559q0 265 127 426q128 162 331 162q245 0 359 -197v606h184v-1556h-184v168q-114 -197 -359 -197q-203 0 -331 162q-127 161 -127 426zM303 559q0 -203 83 -319q84 -115 230 -115t230 115t84 319q0 203 -84 318q-84 116 -230 116t-230 -116q-83 -116 -83 -318z" />
<glyph unicode="e" horiz-adv-x="1260" d="M113 549q0 276 148 436q149 162 401 162q226 0 357 -146q132 -145 132 -395v-90h-846q12 -190 114.5 -289.5t285.5 -99.5q206 0 403 104v-174q-203 -86 -414 -86q-268 0 -425 156q-156 156 -156 422zM311 659l656 1q-1 150 -85 241q-83 90 -218 90q-154 0 -247 -87 q-93 -88 -106 -245z" />
<glyph unicode="f" horiz-adv-x="721" d="M47 977v143h176v78q0 187 87 272.5t276 85.5h174v-153h-176q-99 0 -138 -40q-38 -41 -38 -144v-99h303v-143h-303v-977h-185v977h-176z" />
<glyph unicode="g" horiz-adv-x="1300" d="M113 573q0 259 126 417q126 157 332 157q246 0 359 -197v170h184v-981q0 -286 -127 -425.5t-389 -139.5q-191 0 -350 59v179q157 -86 321 -86q361 0 361 380v91q-113 -197 -359 -197q-206 0 -332 157t-126 416zM303 573q0 -199 82.5 -309t230.5 -110t231 110t83 309 q0 200 -82.5 310t-231.5 110q-148 0 -231 -110q-82 -109 -82 -310z" />
<glyph unicode="h" horiz-adv-x="1298" d="M186 0v1556h185v-610q131 201 362 201q193 0 292 -119.5t99 -351.5v-676h-184v670q0 317 -248 317q-149 0 -235 -95t-86 -259v-633h-185z" />
<glyph unicode="i" horiz-adv-x="569" d="M193 0v1120h184v-1120h-184zM193 1323v233h184v-233h-184z" />
<glyph unicode="j" horiz-adv-x="569" d="M-37 -270h49q106 0 143 49q38 49 38 201v1140h184v-1140q0 -215 -82 -310q-81 -96 -262 -96h-70v156zM193 1323v233h184v-233h-184z" />
<glyph unicode="k" horiz-adv-x="1186" d="M186 0v1556h185v-919l549 483h235l-594 -524l619 -596h-240l-569 547v-547h-185z" />
<glyph unicode="l" horiz-adv-x="569" d="M193 0v1556h184v-1556h-184z" />
<glyph unicode="m" horiz-adv-x="1995" d="M186 0v1120h185v-174q123 201 360 201q122 0 207.5 -62t126.5 -180q135 242 391 242q175 0 270 -122.5t95 -348.5v-676h-185v670q0 161 -57 239t-174 78q-143 0 -226 -95t-83 -259v-633h-185v670q0 162 -57 239.5t-176 77.5q-142 0 -224 -96q-83 -95 -83 -258v-633h-185z " />
<glyph unicode="n" horiz-adv-x="1298" d="M186 0v1120h185v-174q131 201 362 201q193 0 292 -119.5t99 -351.5v-676h-184v670q0 317 -248 317q-149 0 -235 -95t-86 -259v-633h-185z" />
<glyph unicode="o" horiz-adv-x="1253" d="M113 559q0 277 136 432q137 156 378 156t377 -156q137 -157 137 -432q0 -274 -137 -432q-136 -156 -377 -156t-378 156q-136 157 -136 432zM307 559q0 -202 85 -317t235 -115q147 0 233 116t86 316q0 199 -86 315q-86 117 -233 117q-148 0 -234 -116t-86 -316z" />
<glyph unicode="p" horiz-adv-x="1300" d="M186 -426v1546h185v-170q114 197 358 197q203 0 331 -162q128 -163 128 -426t-128 -426q-128 -162 -331 -162q-244 0 -358 197v-594h-185zM371 559q0 -203 83 -319q84 -115 230 -115q147 0 229 115q84 115 84 319q0 203 -84 318q-83 116 -229 116t-230 -116 q-83 -116 -83 -318z" />
<glyph unicode="q" horiz-adv-x="1300" d="M113 559q0 265 127 426q128 162 331 162q245 0 359 -197v170h184v-1546h-184v594q-114 -197 -359 -197q-203 0 -331 162q-127 161 -127 426zM303 559q0 -203 83 -319q84 -115 230 -115t230 115t84 319q0 203 -84 318q-84 116 -230 116t-230 -116q-83 -116 -83 -318z" />
<glyph unicode="r" horiz-adv-x="842" d="M186 0v1120h185v-174q114 201 377 201q40 0 93 -10l1 -189q-60 35 -148 35q-156 0 -239.5 -101.5t-83.5 -291.5v-590h-185z" />
<glyph unicode="s" horiz-adv-x="1067" d="M111 41v190q203 -106 397 -106q129 0 199.5 44.5t70.5 125.5q0 75 -51 115q-48 39 -221 77l-64 15q-171 36 -247 110.5t-76 204.5q0 158 112 244t318 86q207 0 358 -60v-174q-157 80 -336 80q-274 0 -274 -168q0 -64 49 -101q50 -36 197 -69l63 -14q194 -42 278 -119 q83 -77 83 -213q0 -156 -124 -247q-122 -91 -339 -91q-179 0 -393 70z" />
<glyph unicode="t" horiz-adv-x="803" d="M55 977v143h135v318h185v-318h379v-143h-379v-608q0 -138 37 -176q38 -39 153 -39h189v-154h-189q-214 0 -294 79q-81 79 -81 290v608h-135z" />
<glyph unicode="u" horiz-adv-x="1298" d="M174 442v678h184v-671q0 -318 248 -318q149 0 235 95q87 94 87 259v635h184v-1120h-184v172q-132 -201 -361 -201q-193 0 -293 120t-100 351z" />
<glyph unicode="v" horiz-adv-x="1212" d="M61 1120h195l350 -940l350 940h195l-420 -1120h-250z" />
<glyph unicode="w" horiz-adv-x="1675" d="M86 1120h184l230 -874l229 874h217l230 -874l229 874h184l-293 -1120h-217l-241 918l-242 -918h-217z" />
<glyph unicode="x" horiz-adv-x="1212" d="M59 0l435 586l-398 534h217l297 -399l297 399h217l-405 -545l426 -575h-217l-326 440l-326 -440h-217z" />
<glyph unicode="y" horiz-adv-x="1212" d="M61 1120h195l350 -876l350 876h195l-492 -1224q-78 -199 -152 -261q-73 -61 -198 -61h-147v154h108q76 0 118 36t93 170l33 84z" />
<glyph unicode="z" horiz-adv-x="1075" d="M88 0v168l692 805h-667v147h874v-168l-692 -805h692v-147h-899z" />
<glyph unicode="{" d="M256 541v143h61q143 0 196 57q54 59 54 207v240q0 220 84 294q86 74 334 74h62v-143h-68q-140 0 -184 -44q-43 -43 -43 -185v-248q0 -158 -46 -228q-45 -70 -155 -96q111 -27 156 -98t45 -227v-248q0 -142 43 -185q44 -44 184 -44h68v-144h-62q-248 0 -334 74 q-84 74 -84 295v239q0 150 -54 209q-54 58 -196 58h-61z" />
<glyph unicode="|" horiz-adv-x="690" d="M260 -483v2048h170v-2048h-170z" />
<glyph unicode="}" d="M256 -190h70q140 0 182 43q43 43 43 186v248q0 157 45 227q45 71 156 98q-111 26 -156 96t-45 228v248q0 142 -43 185q-42 44 -182 44h-70v143h63q249 0 332 -74q84 -74 84 -294v-240q0 -148 54 -207q54 -57 196 -57h62v-143h-62q-142 0 -196 -58q-54 -59 -54 -209v-239 q0 -221 -84 -295q-83 -74 -332 -74h-63v144z" />
<glyph unicode="~" horiz-adv-x="1716" d="M217 467v178q105 79 194.5 113.5t186.5 34.5q110 0 257 -60q11 -5 15 -6q10 -4 22 -8q156 -62 249 -62q86 0 170.5 38t187.5 122v-178q-104 -78 -194 -112.5t-187 -34.5q-109 0 -256 59q-7 3 -16 6q-14 6 -22 8q-156 62 -249 62q-88 0 -174 -38.5t-184 -121.5z" />
<glyph unicode="&#xa2;" d="M172 559q0 258 132 411q133 153 374 175v287h102l1 -287q143 -7 278 -68v-172q-144 80 -278 86l-1 -864q140 11 279 86v-170q-128 -59 -279 -72v-284h-102v288q-240 19 -374 173q-132 154 -132 411zM367 559q0 -186 82 -298q83 -114 229 -130v856q-146 -18 -229 -131 q-82 -112 -82 -297z" />
<glyph unicode="&#xa3;" d="M129 0v170h236v465h-199v143h199v238q0 261 107 382.5t339 121.5q129 0 291 -60v-182q-151 82 -273 82q-147 0 -206 -78q-58 -76 -58 -289v-215h391v-143h-391v-465h557v-170h-993z" />
<glyph unicode="&#xa5;" d="M82 1493h190l379 -700l377 700h191l-318 -586h264v-123h-331l-84 -155v-51h415v-123h-413v-455h-201v455h-416v123h416v51l-84 155h-332v123h264z" />
<glyph unicode="&#xa7;" horiz-adv-x="1024" d="M92 723q0 184 184 283q-118 88 -118 225q0 130 100 209q101 80 266 80q149 0 305 -58v-164q-167 78 -282 78q-97 0 -151 -40t-54 -111q0 -89 206 -205q24 -14 40 -23q210 -118 276 -196q66 -77 66 -178q0 -177 -185 -283q119 -99 119 -225q0 -142 -102 -226t-275 -84 q-141 0 -315 58v164q174 -78 293 -78q102 0 158.5 42t56.5 118q0 102 -221 225l-25 14q-213 119 -278 196q-64 76 -64 179zM254 754q0 -75 69 -143q72 -67 320 -201q125 89 125 182q0 76 -72 143q-70 67 -317 201q-125 -91 -125 -182z" />
<glyph unicode="&#xa8;" horiz-adv-x="1024" d="M215 1350v202h203v-202h-203zM606 1350v202h203v-202h-203z" />
<glyph unicode="&#xa9;" horiz-adv-x="2048" d="M283 741q0 308 217 525q219 219 524 219t524 -219q217 -217 217 -525q0 -305 -217 -522q-219 -219 -524 -219t-524 219q-217 217 -217 522zM383 741q0 -260 190 -450q189 -189 451 -189q264 0 453 189q186 186 186 450q0 265 -186 453q-188 188 -453 188 q-263 0 -451 -188q-190 -190 -190 -453zM582 741q0 208 125 330q125 121 342 121q141 0 274 -55v-129q-130 65 -262 65q-149 0 -233 -88q-83 -88 -83 -244q0 -159 85.5 -246t240.5 -87q125 0 252 65v-127q-130 -57 -274 -57q-215 0 -342 122q-125 122 -125 330z" />
<glyph unicode="&#xab;" horiz-adv-x="1253" d="M158 559v82l469 418v-191l-301 -268l301 -268v-191zM592 559v82l469 418v-191l-301 -268l301 -268v-191z" />
<glyph unicode="&#xad;" horiz-adv-x="739" d="M100 479v164h539v-164h-539z" />
<glyph unicode="&#xae;" horiz-adv-x="2048" d="M283 741q0 308 217 525q219 219 524 219t524 -219q217 -217 217 -525q0 -305 -217 -522q-219 -219 -524 -219t-524 219q-217 217 -217 522zM383 741q0 -260 190 -450q189 -189 451 -189q264 0 453 189q186 186 186 450q0 265 -186 453q-188 188 -453 188 q-263 0 -451 -188q-190 -190 -190 -453zM719 338v836h285q350 0 350 -240q0 -86 -52.5 -142t-148.5 -73q48 -17 137 -158l137 -223h-172l-129 209q-58 95 -96 121q-37 26 -90 26h-66v-356h-155zM874 795h123q110 0 153 31q44 32 44 106q0 76 -44.5 107.5t-152.5 31.5h-123 v-276z" />
<glyph unicode="&#xb0;" horiz-adv-x="1024" d="M195 1200q0 133 92 227q91 93 225 93q136 0 225 -95q92 -90 92 -225q0 -132 -93 -224q-91 -91 -226 -91t-225 90t-90 225zM322 1200q0 -79 55 -134q55 -54 135 -54t135 54q55 55 55 134t-56 135t-134 56q-79 0 -135 -56q-55 -55 -55 -135z" />
<glyph unicode="&#xb4;" horiz-adv-x="1024" d="M371 1262l280 376h199l-326 -376h-153z" />
<glyph unicode="&#xb6;" d="M158 1071q0 191 130 306q131 116 345 116h448v-1690h-141v1567h-190v-1567h-142v846q-213 16 -333 127q-117 111 -117 295z" />
<glyph unicode="&#xb7;" horiz-adv-x="651" d="M219 584v254h211v-254h-211z" />
<glyph unicode="&#xb8;" horiz-adv-x="1024" d="M291 -240q63 -32 155 -32q119 0 119 94q0 59 -88 178h119q109 -124 109 -215q0 -180 -238 -180q-91 0 -176 24v131z" />
<glyph unicode="&#xbb;" horiz-adv-x="1253" d="M193 141v191l301 268l-301 268v191l469 -418v-82zM627 141v191l301 268l-301 268v191l469 -418v-82z" />
<glyph unicode="&#x192;" horiz-adv-x="721" d="M-129 -273h176q100 0 137 40q39 41 39 144v1066h-176v143h176v78q0 187 87 272.5t276 85.5h174v-153h-176q-99 0 -138 -40q-38 -41 -38 -144v-99h303v-143h-303v-1045q0 -187 -87 -272.5t-276 -85.5h-174v153z" />
<glyph unicode="&#x2c6;" horiz-adv-x="1024" d="M193 1262l245 376h148l245 -376h-139l-180 245l-180 -245h-139z" />
<glyph unicode="&#x2da;" horiz-adv-x="1024" d="M238 1524q0 115 79 194q80 80 195 80q114 0 194 -80t80 -194q0 -115 -80 -195t-194 -80q-115 0 -195 80q-79 79 -79 195zM360 1524q0 -66 43 -109t109 -43q64 0 108 44t44 108q0 63 -44 107t-108 44q-65 0 -109 -44q-43 -43 -43 -107z" />
<glyph unicode="&#x2dc;" horiz-adv-x="1024" d="M182 1309q2 135 53 208.5t142 73.5q71 0 139 -61l57 -55q42 -39 68 -39q38 0 56 36.5t20 118.5h125q-2 -135 -53 -208.5t-142 -73.5q-71 0 -139 61l-57 55q-42 39 -68 39q-38 0 -56 -36.5t-20 -118.5h-125z" />
<glyph unicode="&#x400;" horiz-adv-x="1294" d="M201 0v1493h944v-170h-742v-442h711v-170h-711v-541h760v-170h-962zM506 1899h187l196 -264h-153z" />
<glyph unicode="&#x401;" horiz-adv-x="1294" d="M201 0v1493h944v-170h-742v-442h711v-170h-711v-541h760v-170h-962zM372 1667v203h203v-203h-203zM763 1667v203h203v-203h-203z" />
<glyph unicode="&#x402;" horiz-adv-x="1610" d="M-6 1323v170h1163v-170h-530v-442h417q186 0 297 -117q111 -116 111 -354v-306q0 -270 -102 -392t-330 -122h-76v170h62q134 0 189 75q56 76 56 269v290q0 317 -248 317h-376v-711h-203v1323h-430z" />
<glyph unicode="&#x403;" horiz-adv-x="1249" d="M201 0v1493h929v-170h-727v-1323h-202zM545 1635l196 264h185l-228 -264h-153z" />
<glyph unicode="&#x404;" horiz-adv-x="1430" d="M115 746q0 359 195 566q195 208 530 208q271 0 479 -142v-213q-211 189 -467 189q-264 0 -383 -143t-141 -381h798v-170h-798q22 -238 141 -381q118 -142 383 -142q256 0 467 189v-211q-211 -144 -479 -144q-335 0 -530 207q-195 209 -195 568z" />
<glyph unicode="&#x405;" horiz-adv-x="1300" d="M135 1094q0 198 139 312q140 114 385 114q210 0 437 -76v-197q-228 109 -414 109q-165 0 -254.5 -64t-89.5 -182q0 -99 59 -150q60 -50 226 -81l122 -25q225 -43 333 -151t108 -291q0 -217 -145.5 -329t-426.5 -112q-215 0 -473 95v208q248 -139 473 -139q173 0 267 68 t94 194q0 110 -68 172t-221 93l-123 24q-227 45 -327 141q-101 96 -101 267z" />
<glyph unicode="&#x406;" horiz-adv-x="604" d="M201 0v1493h202v-1493h-202z" />
<glyph unicode="&#x407;" horiz-adv-x="604" d="M6 1667v203h203v-203h-203zM201 0v1493h202v-1493h-202zM397 1667v203h203v-203h-203z" />
<glyph unicode="&#x408;" horiz-adv-x="604" d="M-106 -240h63q133 0 189 75q55 74 55 269v1389h202v-1389q0 -271 -103 -392q-102 -122 -329 -122h-77v170z" />
<glyph unicode="&#x409;" horiz-adv-x="2240" d="M84 0v170q218 46 291 258q75 212 75 811v254h888v-614h234q254 0 388.5 -110t134.5 -329t-134.5 -329.5t-388.5 -110.5h-436v1323h-485v-184q0 -567 -100 -825q-101 -259 -467 -314zM1338 166h224q320 0 320 273q0 139 -78.5 206.5t-241.5 67.5h-224v-547z" />
<glyph unicode="&#x40a;" horiz-adv-x="2140" d="M201 0v1493h202v-612h634v612h202v-614h234q254 0 388.5 -110.5t134.5 -329.5t-134.5 -329t-388.5 -110h-436v711h-634v-711h-202zM1239 166h224q161 0 240.5 67.5t79.5 205.5q0 139 -78.5 206.5t-241.5 67.5h-224v-547z" />
<glyph unicode="&#x40b;" horiz-adv-x="1610" d="M-6 1323v170h1163v-170h-530v-442h417q186 0 297 -117q111 -116 111 -354v-410h-201v394q0 317 -248 317h-376v-711h-203v1323h-430z" />
<glyph unicode="&#x40c;" horiz-adv-x="1454" d="M201 0v1493h202v-738l722 738h259l-577 -590l607 -903h-220l-518 769l-273 -279v-490h-202zM609 1635l196 264h185l-228 -264h-153z" />
<glyph unicode="&#x40d;" horiz-adv-x="1532" d="M201 0v1493h196v-1249l662 1249h272v-1493h-196v1249l-662 -1249h-272zM497 1899h187l196 -264h-153z" />
<glyph unicode="&#x40e;" horiz-adv-x="1248" d="M35 1493h217l371 -876l373 876h217l-558 -1312q-21 -50 -53 -88q-80 -93 -330 -93h-77v170h63q118 0 165 27q28 16 46 59l45 106zM313 1901h118q26 -111 195 -111q164 0 195 111h118q-10 -119 -89.5 -180.5t-223.5 -61.5q-293 0 -313 242z" />
<glyph unicode="&#x40f;" horiz-adv-x="1540" d="M201 0v1493h202v-1323h734v1323h202v-1493h-484v-321h-170v321h-484z" />
<glyph unicode="&#x410;" horiz-adv-x="1401" d="M16 0l570 1493h229l569 -1493h-210l-136 383h-673l-136 -383h-213zM426 551h549l-275 743z" />
<glyph unicode="&#x411;" horiz-adv-x="1405" d="M201 0v1493h954v-166h-752v-448h334q254 0 388.5 -110.5t134.5 -329.5q0 -439 -523 -439h-536zM403 166h324q163 0 241.5 67.5t78.5 205.5q0 139 -78.5 206.5t-241.5 67.5h-324v-547z" />
<glyph unicode="&#x412;" horiz-adv-x="1405" d="M201 0v1493h516q231 0 356 -96t125 -273q0 -137 -64 -218t-188 -101q149 -32 231.5 -133.5t82.5 -253.5q0 -200 -136 -309t-387 -109h-536zM403 166h324q163 0 241.5 67.5t78.5 206.5q0 140 -78.5 206.5t-241.5 66.5h-324v-547zM403 877h299q293 0 293 225t-293 225h-299 v-450z" />
<glyph unicode="&#x413;" horiz-adv-x="1249" d="M201 0v1493h929v-170h-727v-1323h-202z" />
<glyph unicode="&#x414;" horiz-adv-x="1600" d="M101 170h71q135 64 172 183q97 306 97 858v282h888v-1323h170v-491h-170v321h-1058v-321h-170v491zM467 170h660v1153h-485v-212q0 -500 -112 -830q-22 -67 -63 -111z" />
<glyph unicode="&#x415;" horiz-adv-x="1294" d="M201 0v1493h944v-170h-742v-442h711v-170h-711v-541h760v-170h-962z" />
<glyph unicode="&#x416;" horiz-adv-x="2206" d="M40 0l580 904l-545 589h245l682 -738v738h202v-738l682 738h245l-545 -589l580 -904h-211l-493 769l-258 -279v-490h-202v490l-258 279l-493 -769h-211z" />
<glyph unicode="&#x417;" horiz-adv-x="1313" d="M135 65v208q153 -89 237 -111q85 -21 209 -21q192 0 294 73t102 220q0 135 -94.5 208t-285.5 73h-204v166h212q175 0 256 58t81 173t-82 176q-82 62 -279 62q-133 0 -180 -12q-39 -10 -251 -89v197q112 40 231 57q122 17 204 17q246 0 402 -105q156 -103 156 -282 q0 -124 -71 -209.5t-202 -118.5q145 -31 226 -129q82 -97 82 -242q0 -230 -178 -347q-178 -116 -415 -116q-121 0 -264 33q-144 33 -186 61z" />
<glyph unicode="&#x418;" horiz-adv-x="1532" d="M201 0v1493h196v-1249l662 1249h272v-1493h-196v1249l-662 -1249h-272z" />
<glyph unicode="&#x419;" horiz-adv-x="1532" d="M201 0v1493h196v-1249l662 1249h272v-1493h-196v1249l-662 -1249h-272zM444 1901h118q26 -111 195 -111q164 0 195 111h118q-10 -119 -89.5 -180.5t-223.5 -61.5q-293 0 -313 242z" />
<glyph unicode="&#x41a;" horiz-adv-x="1454" d="M201 0v1493h202v-738l722 738h259l-577 -590l607 -903h-220l-518 769l-273 -279v-490h-202z" />
<glyph unicode="&#x41b;" horiz-adv-x="1540" d="M84 0v170q217 46 279 211q87 258 87 858v254h888v-1493h-202v1323h-485v-184q0 -566 -102 -830q-97 -253 -465 -309z" />
<glyph unicode="&#x41c;" horiz-adv-x="1767" d="M201 0v1493h301l381 -1016l383 1016h301v-1493h-197v1311l-385 -1024h-203l-385 1024v-1311h-196z" />
<glyph unicode="&#x41d;" horiz-adv-x="1540" d="M201 0v1493h202v-612h734v612h202v-1493h-202v711h-734v-711h-202z" />
<glyph unicode="&#x41e;" horiz-adv-x="1612" d="M115 745q0 353 188 564q189 211 504 211t502 -211q188 -211 188 -564q0 -352 -188 -564q-187 -210 -502 -210t-504 210q-188 211 -188 564zM328 745q0 -283 129 -446q131 -164 350 -164q220 0 348 164q129 163 129 446t-129 447q-128 164 -348 164q-219 0 -350 -164 q-129 -164 -129 -447z" />
<glyph unicode="&#x41f;" horiz-adv-x="1540" d="M201 0v1493h1138v-1493h-202v1323h-734v-1323h-202z" />
<glyph unicode="&#x420;" horiz-adv-x="1235" d="M201 0v1493h456q251 0 379.5 -113.5t128.5 -332.5q0 -221 -128.5 -334t-379.5 -113h-254v-600h-202zM403 766h254q141 0 218 73t77 208q0 134 -77 207t-218 73h-254v-561z" />
<glyph unicode="&#x421;" horiz-adv-x="1430" d="M115 745q0 360 195 567q195 208 534 208q267 0 475 -142v-213q-202 189 -463 189q-256 0 -392 -156.5t-136 -452.5q0 -295 136 -451.5t392 -156.5q261 0 463 189v-211q-211 -144 -475 -144q-339 0 -534 207q-195 208 -195 567z" />
<glyph unicode="&#x422;" horiz-adv-x="1251" d="M-6 1323v170h1263v-170h-530v-1323h-203v1323h-530z" />
<glyph unicode="&#x423;" horiz-adv-x="1248" d="M35 1493h217l371 -876l373 876h217l-558 -1312q-21 -50 -53 -88q-80 -93 -330 -93h-77v170h63q118 0 165 27q28 16 46 59l45 106z" />
<glyph unicode="&#x424;" horiz-adv-x="1763" d="M121 765q0 265 171 415q172 152 489 174v139h203v-139q317 -23 487 -173q171 -149 171 -416q0 -265 -171 -415t-487 -172v-178h-203v178q-315 22 -489 172q-171 150 -171 415zM334 765q0 -194 113 -296.5t334 -123.5v841q-447 -42 -447 -421zM984 345q221 21 333 123.5 t112 296.5t-112.5 297t-332.5 124v-841z" />
<glyph unicode="&#x425;" horiz-adv-x="1403" d="M61 0l533 797l-465 696h217l371 -555l373 555h217l-480 -717l512 -776h-217l-420 635l-423 -635h-218z" />
<glyph unicode="&#x426;" horiz-adv-x="1590" d="M201 0v1493h202v-1323h734v1323h202v-1323h170v-491h-170v321h-1138z" />
<glyph unicode="&#x427;" horiz-adv-x="1404" d="M175 1083v410h201v-394q0 -317 248 -317h376v711h203v-1493h-203v612h-417q-186 0 -297 116q-111 117 -111 355z" />
<glyph unicode="&#x428;" horiz-adv-x="2190" d="M201 0v1493h202v-1323h591v1323h202v-1323h591v1323h202v-1493h-1788z" />
<glyph unicode="&#x429;" horiz-adv-x="2240" d="M201 0v1493h202v-1323h591v1323h202v-1323h591v1323h202v-1323h170v-491h-170v321h-1788z" />
<glyph unicode="&#x42a;" horiz-adv-x="1705" d="M60 1323v170h643v-614h334q254 0 388.5 -110.5t134.5 -329.5t-134.5 -329t-388.5 -110h-536v1323h-441zM703 166h324q161 0 241 68q79 67 79 205q0 140 -79 207q-77 67 -241 67h-324v-547z" />
<glyph unicode="&#x42b;" horiz-adv-x="1807" d="M201 0v1493h202v-614h334q254 0 388.5 -110.5t134.5 -329.5t-134.5 -329t-388.5 -110h-536zM403 166h324q162 0 241 68q79 67 79 205q0 140 -79 207q-77 67 -241 67h-324v-547zM1404 0v1493h202v-1493h-202z" />
<glyph unicode="&#x42c;" horiz-adv-x="1405" d="M201 0v1493h202v-614h334q254 0 388.5 -110.5t134.5 -329.5t-134.5 -329t-388.5 -110h-536zM403 166h324q162 0 241 68q79 67 79 205q0 140 -79 207q-77 67 -241 67h-324v-547z" />
<glyph unicode="&#x42d;" horiz-adv-x="1430" d="M111 115v211q211 -189 467 -189q265 0 383 142q119 143 141 381h-798v170h798q-22 238 -141 381t-383 143q-256 0 -467 -189v213q208 142 479 142q335 0 530 -208q195 -207 195 -566t-195 -568q-195 -207 -530 -207q-268 0 -479 144z" />
<glyph unicode="&#x42e;" horiz-adv-x="2211" d="M211 0v1493h202v-662h304q13 279 194 485q180 204 495 204q314 0 502 -210q188 -212 188 -565q0 -352 -188 -563q-187 -211 -502 -211t-495 205q-181 206 -194 485h-304v-661h-202zM927 745q0 -283 129 -446q131 -164 350 -164q220 0 348 164q129 163 129 446t-129 447 q-128 164 -348 164q-219 0 -350 -164q-129 -164 -129 -447z" />
<glyph unicode="&#x42f;" horiz-adv-x="1423" d="M136 0l408 653q-99 25 -228 110q-128 86 -128 300q0 208 131 319t387 111h516v-1493h-202v631h-270l-394 -631h-220zM411 1063q0 -131 74.5 -198.5t220.5 -67.5h314v530h-314q-295 0 -295 -264z" />
<glyph unicode="&#x430;" horiz-adv-x="1255" d="M123 326q0 381 504 381h258v18q0 127 -83.5 196.5t-234.5 69.5q-193 0 -362 -92v170q202 78 381 78q243 0 363 -126t120 -382v-639h-184v170q-63 -102 -157 -150.5t-230 -48.5q-172 0 -274 96q-101 98 -101 259zM307 338q0 -98 64.5 -155.5t175.5 -57.5q153 0 245 108 q93 109 93 289v41h-183q-224 0 -309 -51q-86 -51 -86 -174z" />
<glyph unicode="&#x431;" horiz-adv-x="1263" d="M112 948q0 161 58 278q92 187 248 265q159 81 422 82q122 2 176 18l51 -146q-50 -20 -94 -21l-250 -17q-124 -9 -202 -53q-198 -116 -218 -270l-7 -56q131 119 341 119q241 0 377 -156q137 -157 137 -432q0 -274 -137 -432q-136 -156 -377 -156q-240 0 -374 152 q-132 150 -140 436l-6 229q-5 132 -5 160zM317 559q0 -202 85 -317t235 -115q147 0 233 116t86 316q0 199 -86 315q-86 117 -233 117q-148 0 -234 -116t-86 -316z" />
<glyph unicode="&#x432;" horiz-adv-x="1207" d="M186 0v1120h438q197 0 303 -72t106 -205q0 -103 -54 -163.5t-160 -75.5q127 -24 197 -100t70 -190q0 -150 -116 -232t-329 -82h-455zM370 147h262q126 0 192 47.5t66 137.5t-66 137t-192 47h-262v-369zM370 663h242q103 0 170 41q66 42 66 116t-66 113q-65 40 -170 40 h-242v-310z" />
<glyph unicode="&#x433;" horiz-adv-x="1076" d="M186 0v1120h790v-147h-605v-973h-185z" />
<glyph unicode="&#x434;" horiz-adv-x="1416" d="M107 147h69q91 40 131 125q98 213 98 636v212h757v-973h147v-430h-147v283h-908v-283h-147v430zM443 147h534v826h-387v-140q0 -412 -118 -632z" />
<glyph unicode="&#x435;" horiz-adv-x="1260" d="M113 549q0 276 148 436q149 162 401 162q226 0 357 -146q132 -145 132 -395v-90h-846q12 -190 114.5 -289.5t285.5 -99.5q206 0 403 104v-174q-203 -86 -414 -86q-268 0 -425 156q-156 156 -156 422zM311 659l656 1q-1 150 -85 241q-83 90 -218 90q-154 0 -247 -87 q-93 -88 -106 -245z" />
<glyph unicode="&#x436;" horiz-adv-x="1845" d="M70 0l460 689l-402 431h214l489 -526v526h183v-526l489 526h214l-402 -431l460 -689h-197l-377 566l-187 -201v-365h-183v365l-187 201l-377 -566h-197z" />
<glyph unicode="&#x437;" horiz-adv-x="1089" d="M133 27v171q143 -74 334 -74q150 0 235 56q85 55 85 146q0 89 -76 142t-211 53h-148v152h155q115 0 183 44q68 45 68 115q0 64 -70 110q-68 46 -188 46q-147 0 -329 -55v167q196 48 344 48q197 0 309 -79q114 -78 114 -219q0 -93 -60.5 -157.5t-171.5 -88.5 q124 -24 193 -97t69 -181q0 -172 -128.5 -263.5t-367.5 -91.5q-157 0 -339 56z" />
<glyph unicode="&#x438;" horiz-adv-x="1331" d="M186 0v1120h183v-897l539 897h237v-1120h-183v899l-540 -899h-236z" />
<glyph unicode="&#x439;" horiz-adv-x="1331" d="M186 0v1120h183v-897l539 897h237v-1120h-183v899l-540 -899h-236zM353 1557h118q23 -150 195 -150q170 0 195 150h118q-20 -287 -313 -287t-313 287z" />
<glyph unicode="&#x43a;" horiz-adv-x="1237" d="M186 0v1120h183v-526l519 526h226l-428 -433l483 -687h-206l-397 565l-197 -200v-365h-183z" />
<glyph unicode="&#x43b;" horiz-adv-x="1309" d="M76 0v153q183 29 238 154q68 178 68 630v183h757v-1120h-184v973h-389v-111q0 -434 -88 -626q-95 -208 -402 -236z" />
<glyph unicode="&#x43c;" horiz-adv-x="1545" d="M186 0v1120h269l318 -750l319 750h267v-1120h-185v944l-309 -729h-184l-310 729v-944h-185z" />
<glyph unicode="&#x43d;" horiz-adv-x="1339" d="M186 0v1120h185v-457h597v457h185v-1120h-185v516h-597v-516h-185z" />
<glyph unicode="&#x43e;" horiz-adv-x="1253" d="M113 559q0 277 136 432q137 156 378 156t377 -156q137 -157 137 -432q0 -274 -137 -432q-136 -156 -377 -156t-378 156q-136 157 -136 432zM307 559q0 -202 85 -317t235 -115q147 0 233 116t86 316q0 199 -86 315q-86 117 -233 117q-148 0 -234 -116t-86 -316z" />
<glyph unicode="&#x43f;" horiz-adv-x="1339" d="M186 0v1120h967v-1120h-185v973h-597v-973h-185z" />
<glyph unicode="&#x440;" horiz-adv-x="1300" d="M186 -426v1546h185v-170q114 197 358 197q203 0 331 -162q128 -163 128 -426t-128 -426q-128 -162 -331 -162q-244 0 -358 197v-594h-185zM371 559q0 -203 83 -319q84 -115 230 -115q147 0 229 115q84 115 84 319q0 203 -84 318q-83 116 -229 116t-230 -116 q-83 -116 -83 -318z" />
<glyph unicode="&#x441;" horiz-adv-x="1126" d="M113 559q0 273 150 431q151 157 413 157q173 0 323 -70v-172q-157 86 -315 86q-179 0 -278 -114q-99 -113 -99 -318t99 -319q99 -113 278 -113q158 0 315 86v-170q-154 -72 -335 -72q-254 0 -402 159q-149 160 -149 429z" />
<glyph unicode="&#x442;" horiz-adv-x="1193" d="M60 973v147h1073v-147h-446v-973h-181v973h-446z" />
<glyph unicode="&#x443;" horiz-adv-x="1212" d="M61 1120h195l350 -876l350 876h195l-492 -1224q-78 -199 -152 -261q-73 -61 -198 -61h-147v154h108q76 0 118 36t93 170l33 84z" />
<glyph unicode="&#x444;" horiz-adv-x="1751" d="M112 555q0 275 116 433q117 159 284 159q86 0 150.5 -39.5t120.5 -130.5v516h185v-516q56 91 120.5 130.5t150.5 39.5q167 0 283 -159q117 -158 117 -433t-117 -430q-115 -154 -283 -154q-85 0 -150 40t-121 132v-569h-185v569q-56 -92 -121 -132t-150 -40 q-167 0 -284 154q-116 155 -116 430zM303 559q0 -235 72 -335q73 -99 196 -99q98 0 212 168v532q-114 168 -212 168q-123 0 -196 -100q-72 -99 -72 -334zM968 293q114 -168 212 -168q123 0 195 99q73 100 73 335q0 236 -73 334q-72 100 -195 100q-98 0 -212 -168v-532z" />
<glyph unicode="&#x445;" horiz-adv-x="1212" d="M59 0l435 586l-398 534h217l297 -399l297 399h217l-405 -545l426 -575h-217l-326 440l-326 -440h-217z" />
<glyph unicode="&#x446;" horiz-adv-x="1394" d="M186 0v1120h185v-973h597v973h185v-973h147v-430h-147v283h-967z" />
<glyph unicode="&#x447;" horiz-adv-x="1210" d="M150 836v284h184v-267q0 -118 52 -176q53 -59 157 -59h297v502h184v-1120h-184v471h-343q-152 0 -255 95q-92 86 -92 270z" />
<glyph unicode="&#x448;" horiz-adv-x="1874" d="M186 0v1120h185v-973h473v973h185v-973h474v973h185v-1120h-1502z" />
<glyph unicode="&#x449;" horiz-adv-x="1929" d="M186 0v1120h185v-973h473v973h185v-973h474v973h185v-973h147v-430h-147v283h-1502z" />
<glyph unicode="&#x44a;" horiz-adv-x="1447" d="M62 973v147h548v-457h271q217 0 331 -82.5t114 -248.5t-114 -249t-331 -83h-456v973h-363zM610 147h263q126 0 191.5 47.5t65.5 137.5t-65.5 137t-191.5 47h-263v-369z" />
<glyph unicode="&#x44b;" horiz-adv-x="1617" d="M186 0v1120h185v-457h270q217 0 331 -82.5t114 -248.5t-114 -249t-331 -83h-455zM371 147h262q126 0 191.5 47.5t65.5 137.5t-65.5 137t-191.5 47h-262v-369zM1251 0v1120h184v-1120h-184z" />
<glyph unicode="&#x44c;" horiz-adv-x="1207" d="M186 0v1120h185v-457h270q217 0 331 -82.5t114 -248.5t-114 -249t-331 -83h-455zM371 147h262q126 0 191.5 47.5t65.5 137.5t-65.5 137t-191.5 47h-262v-369z" />
<glyph unicode="&#x44d;" horiz-adv-x="1124" d="M113 43v170q158 -86 315 -86q148 0 252 85t124 304h-568v147h562q-12 104 -92 216q-79 112 -278 112q-154 0 -315 -86v172q156 70 323 70q262 0 412 -159q151 -157 151 -429q0 -270 -147 -429q-146 -159 -403 -159q-189 0 -336 72z" />
<glyph unicode="&#x44e;" horiz-adv-x="1724" d="M193 0v1120h184v-447h213q20 191 143 332q124 142 365 142q240 0 377 -156q137 -157 137 -432q0 -274 -137 -432q-137 -156 -377 -156q-241 0 -373 151q-131 152 -140 399h-208v-521h-184zM778 559q0 -202 85 -317t235 -115q147 0 233 116t86 316q0 199 -86 315 q-85 117 -233 117t-234 -116t-86 -316z" />
<glyph unicode="&#x44f;" horiz-adv-x="1232" d="M116 0l342 491q-115 25 -193 94q-77 69 -77 212q0 323 432 323h438v-1120h-185v473h-229l-330 -473h-198zM378 797q0 -84 64 -130.5t183 -46.5h248v353h-248q-119 0 -183 -46t-64 -130z" />
<glyph unicode="&#x450;" horiz-adv-x="1260" d="M113 549q0 276 148 436q149 162 401 162q226 0 357 -146q132 -145 132 -395v-90h-846q12 -190 114.5 -289.5t285.5 -99.5q206 0 403 104v-174q-203 -86 -414 -86q-268 0 -425 156q-156 156 -156 422zM260 1643h197l282 -374h-153zM311 659l656 1q-1 150 -85 241 q-83 90 -218 90q-154 0 -247 -87q-93 -88 -106 -245z" />
<glyph unicode="&#x451;" horiz-adv-x="1260" d="M113 549q0 276 148 436q149 162 401 162q226 0 357 -146q132 -145 132 -395v-90h-846q12 -190 114.5 -289.5t285.5 -99.5q206 0 403 104v-174q-203 -86 -414 -86q-268 0 -425 156q-156 156 -156 422zM311 659l656 1q-1 150 -85 241q-83 90 -218 90q-154 0 -247 -87 q-93 -88 -106 -245zM365 1350v202h203v-202h-203zM756 1350v202h203v-202h-203z" />
<glyph unicode="&#x452;" horiz-adv-x="1280" d="M47 977v143h176v436h185v-436h541v-143h-541v-403q131 201 362 201q182 0 290 -117q108 -116 108 -394q0 -226 -172 -437q-172 -213 -386 -253v140q124 23 244 173q123 151 123 361q0 207 -62 287t-186 80q-154 0 -238 -98q-83 -98 -83 -256v-261h-185v977h-176z" />
<glyph unicode="&#x453;" horiz-adv-x="1076" d="M186 0v1120h790v-147h-605v-973h-185zM505 1269l280 376h199l-326 -376h-153z" />
<glyph unicode="&#x454;" horiz-adv-x="1124" d="M113 559q0 271 150 429q151 159 413 159q167 0 323 -70v-172q-161 86 -315 86q-200 0 -279 -112q-79 -110 -91 -216h562v-147h-568q20 -219 124 -304t252 -85q157 0 315 86v-170q-147 -72 -336 -72q-257 0 -404 159q-146 160 -146 429z" />
<glyph unicode="&#x455;" horiz-adv-x="1067" d="M111 41v190q203 -106 397 -106q129 0 199.5 44.5t70.5 125.5q0 75 -51 115q-48 39 -221 77l-64 15q-171 36 -247 110.5t-76 204.5q0 158 112 244t318 86q207 0 358 -60v-174q-157 80 -336 80q-274 0 -274 -168q0 -64 49 -101q50 -36 197 -69l63 -14q194 -42 278 -119 q83 -77 83 -213q0 -156 -124 -247q-122 -91 -339 -91q-179 0 -393 70z" />
<glyph unicode="&#x456;" horiz-adv-x="569" d="M193 0v1120h184v-1120h-184zM193 1323v233h184v-233h-184z" />
<glyph unicode="&#x457;" horiz-adv-x="569" d="M-12 1350v202h203v-202h-203zM193 0v1120h184v-1120h-184zM379 1350v202h203v-202h-203z" />
<glyph unicode="&#x458;" horiz-adv-x="569" d="M-37 -270h49q106 0 143 49q38 49 38 201v1140h184v-1140q0 -215 -82 -310q-81 -96 -262 -96h-70v156zM193 1323v233h184v-233h-184z" />
<glyph unicode="&#x459;" horiz-adv-x="1848" d="M76 0v153q183 29 238 154q68 178 68 630v183h728v-457h171q217 0 331.5 -82.5t114.5 -248.5t-114 -249t-331 -83h-357v973h-358v-111q0 -434 -88 -626q-95 -208 -403 -236zM1110 147h163q126 0 192 47.5t66 137.5t-66 137t-192 47h-163v-369z" />
<glyph unicode="&#x45a;" horiz-adv-x="1840" d="M186 0v1120h185v-457h546v457h185v-457h171q217 0 331.5 -82.5t114.5 -248.5t-114 -249t-331 -83h-357v516h-546v-516h-185zM1102 147h163q126 0 192 47.5t66 137.5t-66 137t-192 47h-163v-369z" />
<glyph unicode="&#x45b;" horiz-adv-x="1335" d="M47 977v143h176v436h185v-436h541v-143h-541v-403q131 201 362 201q191 0 291 -118t100 -353v-304h-184v298q0 317 -248 317q-152 0 -237 -97q-84 -96 -84 -257v-261h-185v977h-176z" />
<glyph unicode="&#x45c;" horiz-adv-x="1237" d="M186 0v1120h183v-526l519 526h226l-428 -433l483 -687h-206l-397 565l-197 -200v-365h-183zM482 1269l280 376h199l-326 -376h-153z" />
<glyph unicode="&#x45d;" horiz-adv-x="1331" d="M186 0v1120h183v-897l539 897h237v-1120h-183v899l-540 -899h-236zM263 1643h197l282 -374h-153z" />
<glyph unicode="&#x45e;" horiz-adv-x="1212" d="M61 1120h195l350 -876l350 876h195l-492 -1224q-78 -199 -152 -261q-73 -61 -198 -61h-147v154h108q76 0 118 36t93 170l33 84zM293 1556h118q23 -150 195 -150q170 0 195 150h118q-20 -287 -313 -287t-313 287z" />
<glyph unicode="&#x45f;" horiz-adv-x="1339" d="M186 0v1120h185v-973h597v973h185v-1120h-410v-283h-147v283h-410z" />
<glyph unicode="&#x460;" horiz-adv-x="1912" d="M115 736q0 202 100 471q58 157 152 286h249q-84 -71 -219 -391q-67 -158 -67 -342q0 -308 72 -414q73 -109 198 -109q114 0 186 105q71 104 71 302v241h199v-241q0 -199 70 -302q70 -105 186 -105q135 0 199 109q71 119 71 414q0 184 -67 342q-135 320 -219 391h250 q97 -134 151 -286q100 -279 100 -471q0 -410 -123 -588q-123 -177 -332 -177q-147 0 -247 94t-139 267q-39 -173 -139 -267t-247 -94q-210 0 -332 177q-123 180 -123 588z" />
<glyph unicode="&#x461;" horiz-adv-x="1715" d="M135 565q0 234 155 555h198q-143 -321 -143 -560q0 -433 222 -433q203 0 203 538h170q0 -538 203 -538q222 0 222 433q0 239 -143 560h198q155 -321 155 -555q0 -594 -415 -594q-272 0 -305 299q-41 -299 -305 -299q-415 0 -415 594z" />
<glyph unicode="&#x462;" horiz-adv-x="1578" d="M30 1105v164h368v224h202v-224h369v-164h-369v-226h334q254 0 388.5 -110.5t134.5 -329.5t-134.5 -329t-388.5 -110h-536v1105h-368zM600 166h324q162 0 241 68q79 67 79 205q0 140 -79 207q-77 67 -241 67h-324v-547z" />
<glyph unicode="&#x463;" horiz-adv-x="1376" d="M30 973v147h325v436h185v-436h425v-147h-425v-310h270q217 0 331 -82.5t114 -248.5t-114 -249t-331 -83h-455v973h-325zM540 147h262q126 0 191.5 47.5t65.5 137.5t-65.5 137t-191.5 47h-262v-369z" />
<glyph unicode="&#x464;" horiz-adv-x="1930" d="M211 0v1493h202v-612h210q30 265 187 431q195 208 534 208q134 0 252 -36q118 -34 223 -106v-213q-104 97 -217 142q-117 47 -246 47q-256 0 -392 -156q-102 -117 -128 -317h690v-170h-698q8 -269 136 -417q136 -157 392 -157q129 0 246 47q113 45 217 142v-211 q-107 -72 -225 -108t-250 -36q-339 0 -534 207q-186 198 -195 533h-202v-711h-202z" />
<glyph unicode="&#x465;" horiz-adv-x="1534" d="M193 0v1120h184v-461h152q22 201 145 330q152 158 412 158q167 0 323 -70v-172q-161 86 -315 86q-230 0 -322 -180q-34 -63 -46 -152h460v-143h-468q13 -243 171 -338q86 -51 205 -51q157 0 315 86v-170q-147 -72 -335 -72q-268 0 -417 173q-122 143 -133 372h-147v-516 h-184z" />
<glyph unicode="&#x466;" horiz-adv-x="1801" d="M16 0l770 1493h229l769 -1493h-225l-278 539h-279v-539h-202v539h-281l-278 -539h-225zM608 712h584l-292 567z" />
<glyph unicode="&#x467;" horiz-adv-x="1604" d="M51 0l654 1120h195l653 -1120h-195l-236 405h-227v-405h-184v405h-229l-236 -405h-195zM559 537h486l-243 417z" />
<glyph unicode="&#x468;" horiz-adv-x="2375" d="M201 0v1493h202v-612h607l316 612h229l769 -1493h-225l-278 539h-279v-539h-202v539h-281l-278 -539h-225l367 711h-520v-711h-202zM1148 712h584l-292 567z" />
<glyph unicode="&#x469;" horiz-adv-x="2051" d="M193 0v1120h184v-489h489l286 489h195l653 -1120h-195l-236 405h-227v-405h-184v405h-229l-236 -405h-195l284 487h-405v-487h-184zM1006 537h486l-243 417z" />
<glyph unicode="&#x46a;" horiz-adv-x="1612" d="M115 0q0 354 189 564q120 133 290 183l-431 746h1298l-432 -749q165 -50 280 -180q188 -211 188 -564h-213q0 286 -128 447q-97 123 -249 154v-601h-202v601q-147 -28 -247 -154q-130 -163 -130 -447h-213zM493 1323l319 -552l318 552h-637z" />
<glyph unicode="&#x46b;" horiz-adv-x="1253" d="M107 1120h1040l-325 -564q106 -37 182 -124q137 -157 137 -432h-195q0 199 -86 315q-58 79 -144 105v-420h-184v418q-83 -26 -139 -101q-86 -116 -86 -317h-194q0 275 137 432q73 85 182 124zM418 950l209 -362l210 362h-419z" />
<glyph unicode="&#x46c;" horiz-adv-x="2103" d="M201 0v1493h202v-612h604l-353 612h1298l-432 -749q165 -50 280 -180q188 -211 188 -564h-213q0 286 -128 447q-97 123 -249 154v-601h-202v601q-147 -28 -247 -154q-130 -163 -130 -447h-213q0 354 189 564q85 94 195 147h-587v-711h-202zM984 1323l319 -552l318 552 h-637z" />
<glyph unicode="&#x46d;" horiz-adv-x="1688" d="M193 0v1120h184v-489h446l-281 489h1040l-325 -564q106 -37 182 -124q137 -157 137 -432h-195q0 199 -86 315q-59 79 -144 105v-420h-184v418q-83 -26 -139 -101q-86 -116 -86 -317h-194q0 275 137 432q27 31 58 55h-366v-487h-184zM853 950l209 -362l210 362h-419z" />
<glyph unicode="&#x46e;" d="M115 -127q0 121 53 203q63 94 180 94h351q104 0 174 88q65 83 65 188q0 189 -187 244q-87 25 -337 25v166q32 0 61 -1t66 -1q161 0 245 38q117 54 117 195q0 238 -315 238q-163 0 -387 -74v180q158 44 289 58l-159 387h115l160 -381l106 222q29 63 45 88q22 38 46 57 q34 27 101 27q28 0 61 -10v-87l-39 5q-14 2 -26 2q-34 0 -84 -111l-90 -202q166 -24 264 -111q114 -100 114 -267q0 -259 -273 -328q140 -30 223 -122q85 -95 85 -237q0 -207 -115 -310q-151 -136 -350 -136q-78 0 -161 4t-128 4q-96 0 -96 -130q0 -114 220 -114 q65 0 193 12q116 11 148 9q101 -8 182 -44v-167q-67 39 -184 39q-64 0 -185 -13q-131 -14 -186 -14q-125 0 -199 44q-163 97 -163 243z" />
<glyph unicode="&#x46f;" horiz-adv-x="1107" d="M91 -115q0 268 196 268h300q92 0 146 48.5t54 136.5q0 76 -78 132q-60 44 -174 51h-183v152q22 0 44 -1h53q309 0 309 160q0 81 -94 123q-72 33 -164 33q-146 0 -329 -55v167q126 32 228 42l-159 387h115l160 -381l106 222q46 99 68 122q44 50 124 50q28 0 61 -10v-87 q-46 7 -65 7q-35 0 -84 -111l-91 -202q304 -46 304 -289q0 -197 -232 -246q113 -23 182 -86q80 -74 80 -180q0 -158 -118 -252q-110 -86 -271 -86q-77 0 -152 4t-109 4q-80 0 -80 -129q0 -97 98 -124q33 -9 72 -9q44 0 133 18q88 18 134 18q99 0 187 -39v-139 q-58 34 -157 34q-44 0 -154 -11q-105 -12 -155 -12q-106 0 -168 37q-137 83 -137 233z" />
<glyph unicode="&#x470;" horiz-adv-x="1754" d="M16 1430h195l350 -940h125v1003h202v-1005h125l232 626q78 212 182 292q66 51 195 51q53 0 107 -16v-141l-58 7q-25 3 -57 3q-38 0 -66 -25q-65 -55 -126 -217l-284 -758h-250v-310h-202v310h-250z" />
<glyph unicode="&#x471;" horiz-adv-x="1795" d="M50 1120h195l350 -940h125v1386h183v-1388h125l232 626q78 212 182 292q66 51 195 51q53 0 107 -16v-141l-58 7q-26 3 -57 3q-38 0 -66 -25q-65 -55 -126 -217l-284 -758h-250v-426h-183v426h-250z" />
<glyph unicode="&#x472;" horiz-adv-x="1612" d="M115 745q0 353 188 564q189 211 503 211q316 0 503 -211q188 -211 188 -563q0 -353 -188 -565q-187 -210 -503 -210q-314 0 -503 210q-188 211 -188 564zM328 710q7 -256 133 -416q126 -159 346 -159q219 0 344 158q125 159 132 417h-955zM338 877h940q-13 194 -141 337 q-127 142 -329 142q-203 0 -330 -142q-128 -143 -140 -337z" />
<glyph unicode="&#x473;" horiz-adv-x="1253" d="M113 559q0 277 136 432q137 156 378 156t377 -156q137 -157 137 -432q0 -274 -137 -432q-136 -156 -377 -156t-378 156q-136 157 -136 432zM309 507q0 -149 84 -264q84 -116 233 -116t233 116q84 115 84 264h-634zM311 671h628q-18 127 -93 223q-73 97 -221 97 q-147 0 -222 -97q-74 -97 -92 -223z" />
<glyph unicode="&#x474;" horiz-adv-x="1600" d="M16 1493h211l473 -1257l312 829q116 307 202 380q87 75 235 75q63 0 126 -21v-187l-68 10q-20 4 -47 4q-73 0 -107 -34q-71 -68 -155 -288l-383 -1004h-229z" />
<glyph unicode="&#x475;" horiz-adv-x="1362" d="M50 1120h195l350 -940l232 624q79 212 182 292q66 51 195 51q53 0 107 -16v-141l-58 7q-19 3 -57 3t-66 -25q-65 -56 -126 -217l-284 -758h-250z" />
<glyph unicode="&#x476;" horiz-adv-x="1600" d="M16 1493h211l473 -1257l312 829q116 307 202 380q87 75 235 75q63 0 126 -21v-187l-68 10q-20 4 -47 4q-73 0 -107 -34q-71 -68 -155 -288l-383 -1004h-229zM306 1904h185l196 -264h-153zM641 1904h185l196 -264h-153z" />
<glyph unicode="&#x477;" horiz-adv-x="1362" d="M50 1120h195l350 -940l232 624q79 212 182 292q66 51 195 51q53 0 107 -16v-141l-58 7q-19 3 -57 3t-66 -25q-65 -56 -126 -217l-284 -758h-250zM287 1638h178l205 -376h-135zM629 1638h170l190 -376h-137z" />
<glyph unicode="&#x478;" horiz-adv-x="2032" d="M115 745q0 291 96 499q127 276 383 276t382 -275q95 -210 95 -499t-95 -499q-126 -276 -382 -276q-255 0 -383 275q-96 208 -96 499zM328 745q0 -258 29 -376q57 -234 237 -234t237 234q27 114 27 377q0 264 -28 376q-56 234 -236 234t-238 -234q-28 -113 -28 -377z M982 -272h108q76 0 118 36q37 33 93 170l124 311l-350 875h195l253 -630l253 630h195l-492 -1224q-83 -204 -152 -261q-73 -61 -198 -61h-147v154z" />
<glyph unicode="&#x479;" horiz-adv-x="1852" d="M113 559q0 221 96 388q116 200 322 200q203 0 319 -201q95 -167 95 -387t-95 -387q-116 -201 -319 -201q-206 0 -322 200q-96 167 -96 388zM307 559q0 -432 224 -432q219 0 219 432t-219 432q-224 0 -224 -432zM802 -272h108q76 0 118 36q37 33 93 170l124 311l-350 875 h195l253 -630l253 630h195l-492 -1224q-83 -204 -152 -261q-73 -61 -198 -61h-147v154z" />
<glyph unicode="&#x47a;" horiz-adv-x="1952" d="M115 745q0 313 189 525q152 170 503 170h45q10 21 27 36q23 21 49 33q57 24 114 0q31 -13 49 -33q17 -16 27 -36h29q350 0 502 -170q188 -212 188 -525q0 -312 -188 -523q-151 -171 -502 -171h-29q-10 -19 -27 -36q-23 -21 -49 -33q-57 -24 -114 0q-31 13 -49 33 q-14 14 -26 36h-46q-351 0 -503 170q-189 210 -189 524zM328 745q0 -243 130 -406q114 -145 349 -145h46q11 19 26 34q23 21 49 33q57 24 114 0q26 -12 49 -33q15 -15 26 -34h30q235 0 349 145q128 164 128 406q0 243 -128 407q-114 145 -349 145h-30q-11 -21 -26 -34 q-23 -21 -49 -33q-57 -24 -114 0q-26 12 -49 33q-15 15 -26 34h-46q-235 0 -349 -145q-130 -163 -130 -407z" />
<glyph unicode="&#x47b;" horiz-adv-x="1553" d="M113 559q0 232 137 395q115 136 377 136h46q6 8 16 20q14 15 40 27q48 22 96 0q26 -12 40 -27q10 -12 16 -20h46q259 0 377 -136q137 -157 137 -395q0 -231 -137 -394q-116 -137 -377 -137h-46q-6 -8 -16 -20q-14 -15 -40 -27q-48 -22 -96 0q-26 12 -40 27q-10 12 -16 20 h-46q-257 0 -377 137q-137 157 -137 394zM307 559q0 -188 85 -300q72 -95 235 -95h45q10 14 17 21q27 26 63.5 34t72.5 -7q26 -12 40 -27q12 -14 17 -21h45q161 0 233 96q86 116 86 299q0 167 -86 298q-63 97 -233 97h-45q-10 -14 -17 -21q-33 -37 -88 -37t-88 37 q-7 7 -17 21h-45q-163 0 -234 -95q-86 -116 -86 -300z" />
<glyph unicode="&#x47c;" horiz-adv-x="2416" d="M118 509q0 199 67 424q71 236 182 388h249q-125 -106 -217 -350q-85 -225 -85 -408q0 -326 256 -326q138 0 231 54q51 34 151 102q102 54 259 54q155 0 255 -54q100 -68 149 -102q93 -54 231 -54q256 0 256 326q0 183 -85 408q-92 244 -217 350h250q110 -150 181 -388 q67 -225 67 -423q0 -242 -102 -381q-116 -158 -350 -158q-91 0 -201 68q-162 107 -193 128q-122 68 -242 68q-121 0 -245 -68l-194 -128q-110 -68 -201 -68q-235 0 -350 157q-102 140 -102 381zM823 1626v134q139 39 213 81q118 67 244 67q292 0 313 -292h-118 q-23 155 -185 155q-92 0 -184 -47q-149 -76 -283 -98zM1098 1218v103q67 -2 100.5 36.5t33.5 117.5h-133v158h241v-148q0 -267 -242 -267z" />
<glyph unicode="&#x47d;" horiz-adv-x="2105" d="M152 404q0 276 138 561h198q-146 -328 -146 -577q0 -261 208 -261q61 0 135 56q117 90 141 103q100 55 226 55t226 -55q23 -14 141 -103q74 -56 136 -56q208 0 208 263q0 247 -146 575h198q138 -285 138 -562q0 -432 -398 -432q-83 0 -234 113q-149 113 -269 113 q-119 0 -270 -113t-232 -113q-398 0 -398 433zM668 1271v134q140 39 213 81q118 67 244 67q292 0 313 -292h-118q-23 155 -185 155q-92 0 -184 -47q-149 -76 -283 -98zM943 863v103q67 -2 100.5 36.5t33.5 117.5h-133v158h241v-148q0 -267 -242 -267z" />
<glyph unicode="&#x47e;" horiz-adv-x="1912" d="M115 736q0 202 100 471q58 157 152 286h249q-84 -71 -219 -391q-67 -158 -67 -342q0 -308 72 -414q73 -109 198 -109q114 0 186 105q71 104 71 302v241h199v-241q0 -199 70 -302q70 -105 186 -105q135 0 199 109q71 119 71 414q0 184 -67 342q-135 320 -219 391h250 q97 -134 151 -286q100 -279 100 -471q0 -410 -123 -588q-123 -177 -332 -177q-147 0 -247 94t-139 267q-39 -173 -139 -267t-247 -94q-210 0 -332 177q-123 180 -123 588zM506 1843h900l-100 -200h-50l-50 100h-175l-50 -100h-50l-50 100h-175l-50 -100h-50z" />
<glyph unicode="&#x47f;" horiz-adv-x="1715" d="M135 565q0 234 155 555h198q-143 -321 -143 -560q0 -433 222 -433q203 0 203 538h170q0 -538 203 -538q222 0 222 433q0 239 -143 560h198q155 -321 155 -555q0 -594 -415 -594q-272 0 -305 299q-41 -299 -305 -299q-415 0 -415 594zM407 1504h900l-100 -200h-50l-50 100 h-175l-50 -100h-50l-50 100h-175l-50 -100h-50z" />
<glyph unicode="&#x480;" horiz-adv-x="1430" d="M115 745q0 360 195 567q195 208 534 208q134 0 252 -36q118 -34 223 -106v-213q-104 97 -217 142q-117 47 -246 47q-256 0 -392 -156q-136 -157 -136 -453q0 -301 136 -431q151 -148 392 -148h363v-592h-201v426h-174q-346 0 -534 198q-195 208 -195 547z" />
<glyph unicode="&#x481;" horiz-adv-x="1126" d="M113 559q0 274 151 431q150 157 412 157q83 0 166 -17q78 -17 157 -53v-172q-75 42 -157 65q-78 21 -158 21q-179 0 -278 -113q-99 -114 -99 -319q0 -185 99 -299q99 -113 278 -113h245v-573h-201v426h-64q-261 0 -402 150q-149 160 -149 409z" />
<glyph unicode="&#x482;" horiz-adv-x="1029" d="M59 350l100 174l216 -125l105 181l-216 125l100 174l216 -125l105 181l174 -100l-105 -181l216 -125l-100 -174l-216 125l-105 -181l216 -125l-100 -174l-216 125l-125 -216l-174 100l125 216z" />
<glyph unicode="&#x483;" horiz-adv-x="0" d="M-1062 1383q0 29 10 53q10 27 30 45q20 19 45 30q23 10 52 10h461q0 28 10 52q10 27 30 45q20 20 45 30q52 21 104 0q25 -10 45 -30q20 -21 30 -45t10 -53q0 -28 -10 -52q-10 -27 -30 -45q-20 -19 -45 -30q-23 -10 -52 -10h-461q0 -28 -10 -52q-10 -27 -30 -45 q-20 -20 -45 -30q-52 -21 -104 0q-25 10 -45 30q-20 18 -30 45q-10 24 -10 52z" />
<glyph unicode="&#x484;" horiz-adv-x="0" d="M-761 1331v134q139 39 213 81q118 67 244 67q292 0 313 -292h-118q-23 155 -185 155q-92 0 -184 -47q-149 -76 -283 -98z" />
<glyph unicode="&#x485;" horiz-adv-x="0" d="M-589 1485v148h241v-158h-133q0 -79 33.5 -117.5t100.5 -36.5v-103q-242 0 -242 267z" />
<glyph unicode="&#x486;" horiz-adv-x="0" d="M-589 1218v103q67 -2 100.5 36.5t33.5 117.5h-133v158h241v-148q0 -267 -242 -267z" />
<glyph unicode="&#x487;" horiz-adv-x="0" d="M-1590 1281q135 332 566 332q113 0 439 -123q309 -116 594 -115v-134q-415 22 -656 115q-296 113 -397 120q-221 12 -373 -195h-173z" />
<glyph unicode="&#x488;" horiz-adv-x="856" d="M-2090 617q20 287 313 287t313 -287h-118q-22 150 -195 150q-170 0 -195 -150h-118zM-1753 -79q20 287 313 287t313 -287h-118q-23 150 -195 150q-170 0 -195 -150h-118zM-1753 1313q20 287 313 287t313 -287h-118q-23 150 -195 150q-170 0 -195 -150h-118zM-939 -368 q20 287 313 287t313 -287h-118q-23 150 -195 150q-170 0 -195 -150h-118zM-939 1601q20 287 313 287t313 -287h-118q-23 150 -195 150q-170 0 -195 -150h-118zM-125 -79q20 287 313 287t313 -287h-118q-23 150 -195 150q-170 0 -195 -150h-118zM-125 1313q20 287 313 287 t313 -287h-118q-23 150 -195 150q-170 0 -195 -150h-118zM212 617q20 287 313 287t313 -287h-118q-22 150 -195 150q-170 0 -195 -150h-118z" />
<glyph unicode="&#x489;" horiz-adv-x="856" d="M-1960 818v130l320 -82h172v-212h-172zM-1702 -50l284 168l122 122l149 -150l-121 -121l-343 -111zM-1529 1744l92 92l169 -285l121 -121l-150 -150l-121 121zM-814 -573l82 320v172h211v-172l-164 -320h-129zM-732 1601v172l164 320h129l-82 -320v-172h-211zM-107 90 l150 150l121 -121l111 -343l-92 -92l-169 285zM-107 1429l122 122l342 110l92 -91l-285 -169l-121 -121zM214 654v212h172l320 -164v-130l-320 82h-172z" />
<glyph unicode="&#x48a;" horiz-adv-x="1582" d="M201 0v1493h196v-1249l662 1249h272v-1323h201v-170l-366 -426h-134l299 426h-196v1249l-662 -1249h-272zM444 1901h118q26 -111 195 -111q164 0 195 111h118q-10 -119 -89.5 -180.5t-223.5 -61.5q-293 0 -313 242z" />
<glyph unicode="&#x48b;" horiz-adv-x="1386" d="M193 0v1120h183v-897l539 897h237v-967h184v-153l-290 -426h-123l229 426h-183v899l-540 -899h-236zM359 1557h118q23 -150 195 -150q170 0 195 150h118q-20 -287 -313 -287t-313 287z" />
<glyph unicode="&#x48c;" horiz-adv-x="1405" d="M33 1105v164h168v224h202v-224h168v-164h-168v-226h334q254 0 388.5 -110.5t134.5 -329.5t-134.5 -329t-388.5 -110h-536v1105h-168zM403 166h324q162 0 241 68q79 67 79 205q0 140 -79 207q-77 67 -241 67h-324v-547z" />
<glyph unicode="&#x48d;" horiz-adv-x="1207" d="M38 977v143h155v318h184v-318h157v-143h-157v-310h271q208 0 329 -85q116 -83 116 -250t-116 -250q-115 -82 -329 -82h-455v977h-155zM377 153h263q130 0 195 46q62 44 62 133q0 94 -62 136q-67 46 -195 46h-263v-361z" />
<glyph unicode="&#x48e;" horiz-adv-x="1235" d="M201 0v1493h456q251 0 379 -113q129 -114 129 -333q0 -146 -56 -244l140 -117l-106 -126l-146 123q-127 -83 -340 -83h-254v-600h-202zM403 766h254q114 0 185 47l-215 180l106 126l206 -173q11 41 13 101q0 134 -77 207t-218 73h-254v-561z" />
<glyph unicode="&#x48f;" horiz-adv-x="1300" d="M186 -426v1546h185v-170q58 100 147 148q88 49 211 49q203 0 331 -162q128 -163 128 -426t-128 -426q-4 -4 -11.5 -13.5t-11.5 -14.5l147 -174l-111 -93l-149 179q-86 -46 -195 -46q-123 0 -211 48q-89 50 -147 149v-594h-185zM371 559q0 -203 83 -319q84 -115 230 -115 q70 0 126 27l-140 167l110 93l138 -165q79 115 79 312q0 203 -83 319q-84 115 -230 115t-230 -116q-83 -116 -83 -318z" />
<glyph unicode="&#x490;" horiz-adv-x="1249" d="M201 0v1493h759v306h170v-476h-727v-1323h-202z" />
<glyph unicode="&#x491;" horiz-adv-x="1076" d="M186 0v1120h643v314h147v-461h-606v-973h-184z" />
<glyph unicode="&#x492;" horiz-adv-x="1382" d="M71 660v170h263v663h929v-170h-727v-493h547v-170h-547v-660h-202v660h-263z" />
<glyph unicode="&#x493;" horiz-adv-x="1209" d="M56 500v170h263v450h790v-157h-606v-293h416v-170h-416v-500h-184v500h-263z" />
<glyph unicode="&#x494;" horiz-adv-x="1278" d="M201 0v1493h929v-170h-727v-442h417q186 0 299 -119q109 -113 109 -352v-306q0 -270 -102 -392t-330 -122h-76v170h62q134 0 190 75q55 74 55 269v290q0 317 -248 317h-376v-711h-202z" />
<glyph unicode="&#x495;" horiz-adv-x="1085" d="M186 0v1120h790v-170h-606v-319h250q262 0 333 -71q82 -81 82 -310v-270q0 -215 -82 -310q-81 -96 -262 -96h-193v156h172q110 0 143 48q38 56 38 202v264q0 170 -38 202q-50 41 -183 41h-260v-487h-184z" />
<glyph unicode="&#x496;" horiz-adv-x="2206" d="M40 0l580 904l-545 589h245l682 -738v738h202v-738l682 738h245l-545 -589l471 -734h136v-491h-197v321h-41l-493 769l-258 -279v-490h-202v490l-258 279l-493 -769h-211z" />
<glyph unicode="&#x497;" horiz-adv-x="1845" d="M70 0l460 689l-402 431h214l489 -526v526h183v-526l489 526h214l-402 -431l358 -536h122v-436h-184v283h-33l-377 566l-187 -201v-365h-183v365l-187 201l-377 -566h-197z" />
<glyph unicode="&#x498;" horiz-adv-x="1313" d="M135 65v208q153 -89 237 -111q85 -21 209 -21q192 0 294 73t102 220q0 135 -94.5 208t-285.5 73h-204v166h212q175 0 256 58t81 173t-82 176q-82 62 -279 62q-133 0 -180 -12q-39 -10 -251 -89v197q112 40 231 57q122 17 204 17q246 0 402 -105q156 -103 156 -282 q0 -124 -71 -209.5t-202 -118.5q145 -31 226 -129q82 -97 82 -242q0 -230 -178 -347q-178 -116 -415 -116q-121 0 -264 33q-144 33 -186 61zM348 -240q63 -32 155 -32q119 0 119 94q0 59 -88 178h119q109 -124 109 -215q0 -180 -238 -180q-90 0 -176 24v131z" />
<glyph unicode="&#x499;" horiz-adv-x="1089" d="M133 27v171q143 -74 334 -74q150 0 235 56q85 55 85 146q0 89 -76 142t-211 53h-148v152h155q115 0 183 44q68 45 68 115q0 64 -70 110q-68 46 -188 46q-147 0 -329 -55v167q196 48 344 48q197 0 309 -79q114 -78 114 -219q0 -93 -60.5 -157.5t-171.5 -88.5 q124 -24 193 -97t69 -181q0 -172 -128.5 -263.5t-367.5 -91.5q-157 0 -339 56zM242 -240q63 -32 155 -32q119 0 119 94q0 59 -88 178h119q109 -124 109 -215q0 -180 -238 -180q-90 0 -176 24v131z" />
<glyph unicode="&#x49a;" horiz-adv-x="1454" d="M201 0v1493h202v-738l722 738h259l-577 -590l493 -733h160v-491h-197v321h-69l-518 769l-273 -279v-490h-202z" />
<glyph unicode="&#x49b;" horiz-adv-x="1237" d="M186 0v1120h183v-526l519 526h226l-428 -433l375 -534h142v-436h-184v283h-56l-397 565l-197 -200v-365h-183z" />
<glyph unicode="&#x49c;" horiz-adv-x="1454" d="M201 0v1493h202v-738l173 177v340h100v-238l449 459h259l-577 -590l607 -903h-220l-518 769v-475h-100v373l-173 -177v-490h-202z" />
<glyph unicode="&#x49d;" horiz-adv-x="1237" d="M186 0v1120h183v-526l96 97v221h101v-118l322 326h226l-428 -433l483 -687h-206l-397 565v-315h-101v212l-96 -97v-365h-183z" />
<glyph unicode="&#x49e;" horiz-adv-x="1454" d="M33 1125v144h168v224h202v-224h168v-144h-168v-370l722 738h259l-577 -590l607 -903h-220l-518 769l-273 -279v-490h-202v1125h-168z" />
<glyph unicode="&#x49f;" horiz-adv-x="1237" d="M61 1309v125h125v122h183v-122h356v-125h-356v-715l519 526h226l-428 -433l483 -687h-206l-397 565l-197 -200v-365h-183v1309h-125z" />
<glyph unicode="&#x4a0;" horiz-adv-x="1754" d="M50 1323v170h653v-738l722 738h259l-577 -590l607 -903h-220l-518 769l-273 -279v-490h-202v1323h-451z" />
<glyph unicode="&#x4a1;" horiz-adv-x="1703" d="M42 966v154h568v-526l519 526h226l-428 -433l483 -687h-206l-397 565l-197 -200v-365h-183v966h-385z" />
<glyph unicode="&#x4a2;" horiz-adv-x="1540" d="M201 0v1493h202v-612h734v612h202v-1323h201v-491h-201v321h-202v711h-734v-711h-202z" />
<glyph unicode="&#x4a3;" horiz-adv-x="1353" d="M193 0v1120h184v-461h599v461h184v-967h184v-436h-184v283h-184v516h-599v-516h-184z" />
<glyph unicode="&#x4a4;" horiz-adv-x="2077" d="M201 0v1493h202v-612h734v612h929v-170h-727v-1323h-202v711h-734v-711h-202z" />
<glyph unicode="&#x4a5;" horiz-adv-x="1796" d="M193 0v1120h184v-461h599v461h790v-170h-606v-950h-184v516h-599v-516h-184z" />
<glyph unicode="&#x4a6;" horiz-adv-x="2214" d="M201 0v1493h1138v-612h417q186 0 299 -119q109 -113 109 -352v-306q0 -270 -102 -392t-330 -122h-76v170h62q134 0 190 75q55 74 55 269v290q0 317 -248 317h-376v-711h-202v1323h-734v-1323h-202z" />
<glyph unicode="&#x4a7;" horiz-adv-x="1875" d="M193 0v1120h967v-489h250q262 0 333 -71q82 -81 82 -310v-270q0 -215 -82 -310q-81 -96 -262 -96h-193v156h172q110 0 143 48q38 56 38 202v264q0 164 -38 202q-48 46 -183 41h-260v-487h-184v966h-599v-966h-184z" />
<glyph unicode="&#x4a8;" horiz-adv-x="1798" d="M115 747q0 214 79 382t230.5 271t357.5 121v-167q-227 -44 -340.5 -199t-113.5 -408q0 -127 30.5 -236t90.5 -194t157.5 -133.5t223.5 -48.5q77 0 142 11.5t95 27.5q-126 108 -211.5 283t-85.5 376q0 83 13.5 162.5t46 158t81 137t125 94.5t172.5 36q90 0 165 -35.5 t124 -92.5t83 -131t49 -148.5t15 -146.5q0 -89 -13.5 -174.5t-43.5 -176t-86 -177t-133 -157.5q68 -47 201 -47q127 0 214 45v-168q-81 -41 -227 -41q-190 0 -334 90q-155 -90 -382 -90q-221 0 -387 100.5t-252 275.5t-86 400zM983 827q0 -182 68 -328.5t166 -229.5 q214 197 214 548q0 74 -13 149.5t-38.5 142.5t-69 109.5t-97.5 42.5q-56 0 -99 -31t-67 -77t-39 -107.5t-20 -113.5t-5 -105z" />
<glyph unicode="&#x4a9;" horiz-adv-x="1419" d="M113 552q0 266 148.5 427t412.5 167v-155q-180 -12 -273.5 -129t-93.5 -301q0 -198 99 -316t273 -118q108 0 153 28q-74 76 -123.5 202.5t-49.5 251.5q0 193 82 312.5t231 119.5q134 0 218.5 -109.5t84.5 -286.5q0 -306 -187 -490q55 -29 133 -29q57 0 95 9.5t84 38.5 v-157q-78 -46 -192 -46q-143 0 -252 72q-57 -34 -133.5 -53t-141.5 -19q-267 0 -417.5 158.5t-150.5 422.5zM848 607q0 -247 119 -369q62 69 89 170.5t27 203.5q0 136 -35.5 206.5t-77.5 70.5q-53 0 -87.5 -76t-34.5 -206z" />
<glyph unicode="&#x4aa;" horiz-adv-x="1430" d="M115 745q0 360 195 567q195 208 534 208q267 0 475 -142v-213q-202 189 -463 189q-256 0 -392 -156.5t-136 -452.5q0 -295 136 -451.5t392 -156.5q261 0 463 189v-211q-211 -144 -475 -144q-339 0 -534 207q-195 208 -195 567zM592 -240q63 -32 155 -32q119 0 119 94 q0 59 -88 178h119q109 -124 109 -215q0 -180 -238 -180q-90 0 -176 24v131z" />
<glyph unicode="&#x4ab;" horiz-adv-x="1126" d="M113 559q0 273 150 431q151 157 413 157q173 0 323 -70v-172q-157 86 -315 86q-179 0 -278 -114q-99 -113 -99 -318t99 -319q99 -113 278 -113q158 0 315 86v-170q-154 -72 -335 -72q-254 0 -402 159q-149 160 -149 429zM434 -240q63 -32 155 -32q119 0 119 94 q0 59 -88 178h119q109 -124 109 -215q0 -180 -238 -180q-90 0 -176 24v131z" />
<glyph unicode="&#x4ac;" horiz-adv-x="1251" d="M-6 1323v170h1263v-170h-530v-1153h201v-491h-201v321h-203v1323h-530z" />
<glyph unicode="&#x4ad;" horiz-adv-x="1193" d="M60 950v170h1073v-170h-446v-797h184v-436h-184v283h-181v950h-446z" />
<glyph unicode="&#x4ae;" horiz-adv-x="1251" d="M-4 1493h217l414 -614l411 614h217l-528 -782v-711h-203v711z" />
<glyph unicode="&#x4af;" horiz-adv-x="1212" d="M61 1120h195l350 -876l350 876h195l-442 -1102v-444h-195v444z" />
<glyph unicode="&#x4b0;" horiz-adv-x="1251" d="M-4 1493h217l414 -614l411 614h217l-528 -782v-170h264v-170h-264v-371h-203v371h-263v170h263v170z" />
<glyph unicode="&#x4b1;" horiz-adv-x="1212" d="M61 1120h195l350 -876l350 876h195l-442 -1102v-88h262v-170h-262v-186h-195v186h-273v170h273v88z" />
<glyph unicode="&#x4b2;" horiz-adv-x="1403" d="M61 0l533 797l-465 696h217l371 -555l373 555h217l-480 -717l400 -606h112v-491h-197v321h-20l-420 635l-423 -635h-218z" />
<glyph unicode="&#x4b3;" horiz-adv-x="1212" d="M59 0l435 586l-398 534h217l297 -399l297 399h217l-405 -545l313 -422h113v-436h-184v283h-33l-326 440l-326 -440h-217z" />
<glyph unicode="&#x4b4;" horiz-adv-x="1913" d="M-6 1323v170h1263v-170h-530l-1 -1153h734v1323h202v-1323h201v-491h-201v321h-1138v1323h-530z" />
<glyph unicode="&#x4b5;" horiz-adv-x="1652" d="M5 950v170h1073v-170h-446v-797h602v967h184v-967h184v-436h-184v283h-967v950h-446z" />
<glyph unicode="&#x4b6;" horiz-adv-x="1404" d="M175 1182v311h201v-295q0 -317 248 -317h376v612h203v-1323h201v-491h-201v321h-203v711h-417q-186 0 -299 119q-109 113 -109 352z" />
<glyph unicode="&#x4b7;" horiz-adv-x="1210" d="M150 886v234h184v-211q0 -118 52 -176q53 -59 157 -59h297v446h184v-967h184v-436h-184v283h-184v521h-343q-152 0 -255 95q-92 86 -92 270z" />
<glyph unicode="&#x4b8;" horiz-adv-x="1404" d="M175 1182v311h201v-295q0 -317 248 -317h18v313h144v-313h214v612h203v-1493h-203v711h-214v-305h-144v305h-59q-186 0 -299 119q-109 113 -109 352z" />
<glyph unicode="&#x4b9;" horiz-adv-x="1210" d="M150 886v234h184v-211q0 -118 52 -176q44 -48 119 -57v194h160v-196h175v446h184v-1120h-184v521h-175v-196h-160v196h-8q-152 0 -255 95q-92 86 -92 270z" />
<glyph unicode="&#x4ba;" horiz-adv-x="1404" d="M175 0v1493h203v-612h417q186 0 297 -117q111 -116 111 -354v-410h-201v394q0 317 -248 317h-376v-711h-203z" />
<glyph unicode="&#x4bb;" horiz-adv-x="1298" d="M186 0v1556h185v-610q131 201 362 201q193 0 292 -119.5t99 -351.5v-676h-184v670q0 317 -248 317q-149 0 -235 -95t-86 -259v-633h-185z" />
<glyph unicode="&#x4bc;" horiz-adv-x="1927" d="M20 1143v76h170v-62q0 -157 75 -225q65 -57 169 -55q35 264 184 433q188 210 502 210q322 0 504 -210q186 -218 188 -599h-1168q0 -267 137 -421q137 -153 411 -153q279 0 503 191v-215q-109 -69 -242 -106q-132 -36 -278 -36q-351 0 -547 205q-187 193 -198 535 q-170 -1 -288 102q-122 107 -122 330zM651 877h941q-24 190 -122 315q-131 164 -350 164q-220 0 -348 -164q-97 -124 -121 -315z" />
<glyph unicode="&#x4bd;" horiz-adv-x="1491" d="M15 860v70h156v-49q0 -151 48 -184q58 -38 131 -38q25 195 142 327q146 161 401 161q227 0 357 -145q132 -146 132 -396v-90h-846q12 -189 114 -290q104 -99 286 -99q104 0 206 26q100 26 197 78v-174q-96 -41 -203 -64q-114 -23 -211 -22q-269 5 -425 156 q-148 144 -156 389q-145 0 -233 82q-96 90 -96 262zM542 659l656 1q-1 151 -84 241q-82 90 -219 90q-154 0 -247 -87q-93 -88 -106 -245z" />
<glyph unicode="&#x4be;" horiz-adv-x="1927" d="M20 1143v76h170v-62q0 -157 75 -225q65 -57 169 -55q35 264 184 433q188 210 502 210q322 0 504 -210q186 -218 188 -599h-1168q0 -267 137 -421q137 -153 411 -153q279 0 503 191v-215q-109 -69 -242 -106q-132 -36 -278 -36q-351 0 -547 205q-187 193 -198 535 q-170 -1 -288 102q-122 107 -122 330zM651 877h941q-24 190 -122 315q-131 164 -350 164q-220 0 -348 -164q-97 -124 -121 -315zM1032 -215q0 92 108 215h119q-88 -119 -88 -180q0 -92 109 -92q64 0 125 30v-133q-78 -20 -136 -20q-122 0 -179.5 43.5t-57.5 136.5z" />
<glyph unicode="&#x4bf;" horiz-adv-x="1491" d="M15 860v70h156v-49q0 -151 48 -184q58 -38 131 -38q25 195 142 327q146 161 401 161q227 0 357 -145q132 -146 132 -396v-90h-846q12 -189 114 -290q104 -99 286 -99q104 0 206 26q100 26 197 78v-174q-96 -41 -203 -64q-114 -23 -211 -22q-269 5 -425 156 q-148 144 -156 389q-145 0 -233 82q-96 90 -96 262zM542 659l656 1q-1 151 -84 241q-82 90 -219 90q-154 0 -247 -87q-93 -88 -106 -245zM819 -215q0 92 108 215h119q-88 -119 -88 -180q0 -92 109 -92q63 0 125 30v-133q-78 -20 -136 -20q-122 0 -179.5 43.5t-57.5 136.5z " />
<glyph unicode="&#x4c0;" horiz-adv-x="604" d="M201 0v1493h202v-1493h-202z" />
<glyph unicode="&#x4c1;" horiz-adv-x="2206" d="M40 0l580 904l-545 589h245l682 -738v738h202v-738l682 738h245l-545 -589l580 -904h-211l-493 769l-258 -279v-490h-202v490l-258 279l-493 -769h-211zM802 1901h118q26 -111 195 -111q164 0 195 111h118q-10 -119 -89.5 -180.5t-223.5 -61.5q-293 0 -313 242z" />
<glyph unicode="&#x4c2;" horiz-adv-x="1845" d="M70 0l460 689l-402 431h214l489 -526v526h183v-526l489 526h214l-402 -431l460 -689h-197l-377 566l-187 -201v-365h-183v365l-187 201l-377 -566h-197zM623 1608h118q23 -150 195 -150q170 0 195 150h118q-20 -287 -313 -287t-313 287z" />
<glyph unicode="&#x4c3;" horiz-adv-x="1343" d="M201 0v1493h202v-631l670 631h260l-652 -612h139q186 0 299 -119q109 -113 109 -352v-306q0 -270 -102 -392t-330 -122h-76v170h62q134 0 190 75q55 74 55 269v290q0 317 -248 317h-376v-711h-202z" />
<glyph unicode="&#x4c4;" horiz-adv-x="1237" d="M191 0v1120h185v-483l549 483h235l-554 -489h20q260 0 333 -71q82 -81 82 -310v-270q0 -215 -82 -310q-81 -96 -262 -96h-193v156h172q110 0 143 48q38 56 38 202v264q0 166 -38 202q-44 41 -183 41h-260v-487h-185z" />
<glyph unicode="&#x4c5;" horiz-adv-x="1589" d="M54 -28v167q212 47 279 214q117 293 117 858v282h888v-1323h201v-170l-366 -426h-134l299 426h-202v1323h-485v-212q0 -488 -132 -830q-97 -253 -465 -309z" />
<glyph unicode="&#x4c6;" horiz-adv-x="1373" d="M46 -29v153q180 27 238 154q98 208 98 630v212h757v-967h184v-153l-290 -426h-123l229 426h-184v967h-389v-134q0 -368 -118 -626q-95 -208 -402 -236z" />
<glyph unicode="&#x4c7;" horiz-adv-x="1540" d="M201 0v1493h202v-612h734v612h202v-1389q0 -271 -103 -392q-104 -122 -330 -122h-76v170h62q134 0 190 75q55 74 55 269v607h-734v-711h-202z" />
<glyph unicode="&#x4c8;" horiz-adv-x="1353" d="M193 0v1120h184v-461h599v461h184v-1140q0 -215 -82 -310q-81 -96 -262 -96h-193v156h172q110 0 143 48q38 56 38 202v536h-599v-516h-184z" />
<glyph unicode="&#x4c9;" horiz-adv-x="1590" d="M201 0v1493h202v-612h734v612h202v-1323h201v-170l-366 -426h-134l299 426h-202v711h-734v-711h-202z" />
<glyph unicode="&#x4ca;" horiz-adv-x="1394" d="M193 0v1120h184v-461h599v461h184v-967h184v-153l-290 -426h-123l229 426h-184v516h-599v-516h-184z" />
<glyph unicode="&#x4cb;" horiz-adv-x="1404" d="M175 1182v311h201v-295q0 -317 248 -317h376v612h203v-1493h-203v-321h-201v491h201v541h-417q-186 0 -299 119q-109 113 -109 352z" />
<glyph unicode="&#x4cc;" horiz-adv-x="1210" d="M150 886v234h184v-211q0 -118 52 -176q53 -59 157 -59h297v446h184v-1120h-184v-283h-184v436h184v368h-343q-152 0 -255 95q-92 86 -92 270z" />
<glyph unicode="&#x4cd;" horiz-adv-x="1818" d="M201 0v1493h301l381 -1016l383 1016h301v-1323h201v-170l-366 -426h-134l299 426h-197v1311l-385 -1024h-203l-385 1024v-1311h-196z" />
<glyph unicode="&#x4ce;" horiz-adv-x="1586" d="M193 0v1120h262l318 -750l319 750h260v-967h184v-153l-290 -426h-123l229 426h-178v944l-309 -729h-184l-310 729v-944h-178z" />
<glyph unicode="&#x4cf;" horiz-adv-x="569" d="M193 0v1556h184v-1556h-184z" />
<glyph unicode="&#x4d0;" horiz-adv-x="1401" d="M16 0l570 1493h229l569 -1493h-210l-136 383h-673l-136 -383h-213zM405 1938h118q23 -150 195 -150q170 0 195 150h118q-20 -287 -313 -287t-313 287zM426 551h549l-275 743z" />
<glyph unicode="&#x4d1;" horiz-adv-x="1255" d="M123 326q0 381 504 381h258v18q0 127 -83.5 196.5t-234.5 69.5q-193 0 -362 -92v170q202 78 381 78q243 0 363 -126t120 -382v-639h-184v170q-63 -102 -157 -150.5t-230 -48.5q-172 0 -274 96q-101 98 -101 259zM278 1567h118q22 -150 195 -150q170 0 195 150h118 q-20 -287 -313 -287t-313 287zM307 338q0 -98 64.5 -155.5t175.5 -57.5q153 0 245 108q93 109 93 289v41h-183q-224 0 -309 -51q-86 -51 -86 -174z" />
<glyph unicode="&#x4d2;" horiz-adv-x="1401" d="M16 0l570 1493h229l569 -1493h-210l-136 383h-673l-136 -383h-213zM403 1667v203h203v-203h-203zM426 551h549l-275 743zM794 1667v203h203v-203h-203z" />
<glyph unicode="&#x4d3;" horiz-adv-x="1255" d="M123 326q0 381 504 381h258v18q0 127 -83.5 196.5t-234.5 69.5q-193 0 -362 -92v170q202 78 381 78q243 0 363 -126t120 -382v-639h-184v170q-63 -102 -157 -150.5t-230 -48.5q-172 0 -274 96q-101 98 -101 259zM297 1350v202h203v-202h-203zM307 338q0 -98 64.5 -155.5 t175.5 -57.5q153 0 245 108q93 109 93 289v41h-183q-224 0 -309 -51q-86 -51 -86 -174zM688 1350v202h203v-202h-203z" />
<glyph unicode="&#x4d4;" horiz-adv-x="1995" d="M8 0l625 1493h1212v-170h-741v-442h711v-170h-711v-541h760v-170h-963v383h-528l-160 -383h-205zM442 551h459v784h-129z" />
<glyph unicode="&#x4d5;" horiz-adv-x="2011" d="M123 326q0 381 504 381h258v18q0 127 -83.5 196.5t-234.5 69.5q-193 0 -362 -92v170q202 78 381 78q142 0 248.5 -48t160.5 -136q152 184 418 184q226 0 358 -146q132 -145 132 -395v-90h-846q12 -191 114 -291t285 -100q205 0 404 106v-174q-204 -86 -414 -86 q-337 0 -492 240q-146 -240 -432 -240q-189 0 -294 93q-105 94 -105 262zM307 338q0 -98 64.5 -155.5t175.5 -57.5q153 0 245 108q93 109 93 289v41h-183q-224 0 -309 -51q-86 -51 -86 -174zM1063 659l655 1q-1 151 -84 241q-82 90 -219 90q-153 0 -245.5 -87t-106.5 -245z " />
<glyph unicode="&#x4d6;" horiz-adv-x="1294" d="M201 0v1493h944v-170h-742v-442h711v-170h-711v-541h760v-170h-962zM360 1901h118q26 -111 195 -111q164 0 195 111h118q-10 -119 -89.5 -180.5t-223.5 -61.5q-293 0 -313 242z" />
<glyph unicode="&#x4d7;" horiz-adv-x="1260" d="M113 549q0 276 148 436q149 162 401 162q226 0 357 -146q132 -145 132 -395v-90h-846q12 -190 114.5 -289.5t285.5 -99.5q206 0 403 104v-174q-203 -86 -414 -86q-268 0 -425 156q-156 156 -156 422zM311 659l656 1q-1 150 -85 241q-83 90 -218 90q-154 0 -247 -87 q-93 -88 -106 -245zM349 1608h118q23 -150 195 -150q170 0 195 150h118q-20 -287 -313 -287t-313 287z" />
<glyph unicode="&#x4d8;" horiz-adv-x="1612" d="M117 780h1167q0 268 -138 421q-136 153 -411 153q-279 0 -503 -191v215q226 142 520 142q351 0 547 -205q198 -204 198 -570q0 -352 -188 -564q-187 -210 -502 -210q-329 0 -510 219q-180 220 -180 590zM337 614q14 -196 140 -337q127 -142 330 -142q202 0 329 142 q128 143 141 337h-940z" />
<glyph unicode="&#x4d9;" horiz-adv-x="1260" d="M113 512v90h846q-12 190 -114.5 289.5t-285.5 99.5q-206 0 -403 -104v174q203 86 414 86q268 0 424 -156q157 -156 157 -422q0 -274 -149 -437q-149 -161 -400 -161q-226 0 -358 145q-131 146 -131 396zM297 458q1 -151 84 -241t219 -90q154 0 246 87q93 87 107 245z" />
<glyph unicode="&#x4da;" horiz-adv-x="1612" d="M117 780h1167q0 268 -138 421q-136 153 -411 153q-279 0 -503 -191v215q226 142 520 142q351 0 547 -205q198 -204 198 -570q0 -352 -188 -564q-187 -210 -502 -210q-329 0 -510 219q-180 220 -180 590zM337 614q14 -196 140 -337q127 -142 330 -142q202 0 329 142 q128 143 141 337h-940zM503 1667v203h203v-203h-203zM894 1667v203h203v-203h-203z" />
<glyph unicode="&#x4db;" horiz-adv-x="1260" d="M113 512v90h846q-12 190 -114.5 289.5t-285.5 99.5q-206 0 -403 -104v174q203 86 414 86q268 0 424 -156q157 -156 157 -422q0 -274 -149 -437q-149 -161 -400 -161q-226 0 -358 145q-131 146 -131 396zM297 458q1 -151 84 -241t219 -90q154 0 246 87q93 87 107 245z M299 1350v202h203v-202h-203zM690 1350v202h203v-202h-203z" />
<glyph unicode="&#x4dc;" horiz-adv-x="2206" d="M40 0l580 904l-545 589h245l682 -738v738h202v-738l682 738h245l-545 -589l580 -904h-211l-493 769l-258 -279v-490h-202v490l-258 279l-493 -769h-211zM808 1667v203h203v-203h-203zM1199 1667v203h203v-203h-203z" />
<glyph unicode="&#x4dd;" horiz-adv-x="1845" d="M70 0l460 689l-402 431h214l489 -526v526h183v-526l489 526h214l-402 -431l460 -689h-197l-377 566l-187 -201v-365h-183v365l-187 201l-377 -566h-197zM629 1350v202h203v-202h-203zM1020 1350v202h203v-202h-203z" />
<glyph unicode="&#x4de;" horiz-adv-x="1313" d="M135 65v208q153 -89 237 -111q85 -21 209 -21q192 0 294 73t102 220q0 135 -94.5 208t-285.5 73h-204v166h212q175 0 256 58t81 173t-82 176q-82 62 -279 62q-133 0 -180 -12q-39 -10 -251 -89v197q112 40 231 57q122 17 204 17q246 0 402 -105q156 -103 156 -282 q0 -124 -71 -209.5t-202 -118.5q145 -31 226 -129q82 -97 82 -242q0 -230 -178 -347q-178 -116 -415 -116q-121 0 -264 33q-144 33 -186 61zM350 1667v203h203v-203h-203zM741 1667v203h203v-203h-203z" />
<glyph unicode="&#x4df;" horiz-adv-x="1089" d="M133 27v171q143 -74 334 -74q150 0 235 56q85 55 85 146q0 89 -76 142t-211 53h-148v152h155q115 0 183 44q68 45 68 115q0 64 -70 110q-68 46 -188 46q-147 0 -329 -55v167q196 48 344 48q197 0 309 -79q114 -78 114 -219q0 -93 -60.5 -157.5t-171.5 -88.5 q124 -24 193 -97t69 -181q0 -172 -128.5 -263.5t-367.5 -91.5q-157 0 -339 56zM273 1350v202h203v-202h-203zM664 1350v202h203v-202h-203z" />
<glyph unicode="&#x4e0;" horiz-adv-x="1364" d="M160 1323v170h1024v-154l-411 -490q105 0 234 -56q100 -43 184 -151q81 -103 81 -242q0 -220 -152 -342q-151 -121 -432 -121q-123 0 -244 19q-131 19 -260 55v195q103 -48 233 -74q124 -25 263 -25q192 0 291 75q100 75 100 218q0 133 -92 207q-94 74 -258 74h-174v152 l385 490h-772z" />
<glyph unicode="&#x4e1;" horiz-adv-x="1183" d="M88 -167q171 -99 393 -99q190 0 289 75q100 75 100 218q0 132 -92 207q-94 74 -258 74h-174v166l430 499h-667v147h874v-168l-411 -476q105 0 234 -56q100 -43 184 -151q81 -104 81 -242q0 -220 -152 -342q-151 -121 -432 -121q-94 0 -193 18q-105 20 -206 56v195z" />
<glyph unicode="&#x4e2;" horiz-adv-x="1532" d="M201 0v1493h196v-1249l662 1249h272v-1493h-196v1249l-662 -1249h-272zM458 1693v148h598v-148h-598z" />
<glyph unicode="&#x4e3;" horiz-adv-x="1331" d="M186 0v1120h183v-897l539 897h237v-1120h-183v899l-540 -899h-236zM359 1378v148h598v-148h-598z" />
<glyph unicode="&#x4e4;" horiz-adv-x="1532" d="M201 0v1493h196v-1249l662 1249h272v-1493h-196v1249l-662 -1249h-272zM460 1667v203h203v-203h-203zM851 1667v203h203v-203h-203z" />
<glyph unicode="&#x4e5;" horiz-adv-x="1331" d="M186 0v1120h183v-897l539 897h237v-1120h-183v899l-540 -899h-236zM361 1350v202h203v-202h-203zM752 1350v202h203v-202h-203z" />
<glyph unicode="&#x4e6;" horiz-adv-x="1612" d="M115 745q0 353 188 564q189 211 504 211t502 -211q188 -211 188 -564q0 -352 -188 -564q-187 -210 -502 -210t-504 210q-188 211 -188 564zM328 745q0 -283 129 -446q131 -164 350 -164q220 0 348 164q129 163 129 446t-129 447q-128 164 -348 164q-219 0 -350 -164 q-129 -164 -129 -447zM510 1667v203h203v-203h-203zM901 1667v203h203v-203h-203z" />
<glyph unicode="&#x4e7;" horiz-adv-x="1253" d="M113 559q0 277 136 432q137 156 378 156t377 -156q137 -157 137 -432q0 -274 -137 -432q-136 -156 -377 -156t-378 156q-136 157 -136 432zM307 559q0 -202 85 -317t235 -115q147 0 233 116t86 316q0 199 -86 315q-86 117 -233 117q-148 0 -234 -116t-86 -316zM330 1350 v202h203v-202h-203zM721 1350v202h203v-202h-203z" />
<glyph unicode="&#x4e8;" horiz-adv-x="1612" d="M115 745q0 353 188 564q189 211 503 211q316 0 503 -211q188 -211 188 -563q0 -353 -188 -565q-187 -210 -503 -210q-314 0 -503 210q-188 211 -188 564zM328 710q7 -256 133 -416q126 -159 346 -159q219 0 344 158q125 159 132 417h-955zM338 877h940q-13 194 -141 337 q-127 142 -329 142q-203 0 -330 -142q-128 -143 -140 -337z" />
<glyph unicode="&#x4e9;" horiz-adv-x="1253" d="M113 559q0 277 136 432q137 156 378 156t377 -156q137 -157 137 -432q0 -274 -137 -432q-136 -156 -377 -156t-378 156q-136 157 -136 432zM309 507q0 -149 84 -264q84 -116 233 -116t233 116q84 115 84 264h-634zM311 671h628q-18 127 -93 223q-73 97 -221 97 q-147 0 -222 -97q-74 -97 -92 -223z" />
<glyph unicode="&#x4ea;" horiz-adv-x="1612" d="M115 745q0 353 188 564q189 211 503 211q316 0 503 -211q188 -211 188 -563q0 -353 -188 -565q-187 -210 -503 -210q-314 0 -503 210q-188 211 -188 564zM328 710q7 -256 133 -416q126 -159 346 -159q219 0 344 158q125 159 132 417h-955zM338 877h940q-13 194 -141 337 q-127 142 -329 142q-203 0 -330 -142q-128 -143 -140 -337zM510 1667v203h203v-203h-203zM901 1667v203h203v-203h-203z" />
<glyph unicode="&#x4eb;" horiz-adv-x="1253" d="M113 559q0 277 136 432q137 156 378 156t377 -156q137 -157 137 -432q0 -274 -137 -432q-136 -156 -377 -156t-378 156q-136 157 -136 432zM309 507q0 -149 84 -264q84 -116 233 -116t233 116q84 115 84 264h-634zM311 671h628q-18 127 -93 223q-73 97 -221 97 q-147 0 -222 -97q-74 -97 -92 -223zM330 1350v202h203v-202h-203zM721 1350v202h203v-202h-203z" />
<glyph unicode="&#x4ec;" horiz-adv-x="1430" d="M111 115v211q211 -189 467 -189q265 0 383 142q119 143 141 381h-798v170h798q-22 238 -141 381t-383 143q-256 0 -467 -189v213q208 142 479 142q335 0 530 -208q195 -207 195 -566t-195 -568q-195 -207 -530 -207q-268 0 -479 144zM318 1667v203h203v-203h-203z M709 1667v203h203v-203h-203z" />
<glyph unicode="&#x4ed;" horiz-adv-x="1124" d="M113 43v170q158 -86 315 -86q148 0 252 85t124 304h-568v147h562q-12 104 -92 216q-79 112 -278 112q-154 0 -315 -86v172q156 70 323 70q262 0 412 -159q151 -157 151 -429q0 -270 -147 -429q-146 -159 -403 -159q-189 0 -336 72zM186 1350v202h203v-202h-203zM577 1350 v202h203v-202h-203z" />
<glyph unicode="&#x4ee;" horiz-adv-x="1248" d="M35 1493h217l371 -876l373 876h217l-558 -1312q-21 -50 -53 -88q-80 -93 -330 -93h-77v170h63q118 0 165 27q28 16 46 59l45 106zM327 1693v148h598v-148h-598z" />
<glyph unicode="&#x4ef;" horiz-adv-x="1212" d="M61 1120h195l350 -876l350 876h195l-492 -1224q-78 -199 -152 -261q-73 -61 -198 -61h-147v154h108q76 0 118 36t93 170l33 84zM307 1377v148h598v-148h-598z" />
<glyph unicode="&#x4f0;" horiz-adv-x="1248" d="M35 1493h217l371 -876l373 876h217l-558 -1312q-21 -50 -53 -88q-80 -93 -330 -93h-77v170h63q118 0 165 27q28 16 46 59l45 106zM329 1667v203h203v-203h-203zM720 1667v203h203v-203h-203z" />
<glyph unicode="&#x4f1;" horiz-adv-x="1212" d="M61 1120h195l350 -876l350 876h195l-492 -1224q-78 -199 -152 -261q-73 -61 -198 -61h-147v154h108q76 0 118 36t93 170l33 84zM309 1350v202h203v-202h-203zM700 1350v202h203v-202h-203z" />
<glyph unicode="&#x4f2;" horiz-adv-x="1248" d="M35 1493h217l371 -876l373 876h217l-558 -1312q-21 -50 -53 -88q-80 -93 -330 -93h-77v170h63q118 0 165 27q28 16 46 59l45 106zM344 1635l196 264h185l-228 -264h-153zM679 1635l196 264h185l-228 -264h-153z" />
<glyph unicode="&#x4f3;" horiz-adv-x="1212" d="M61 1120h195l350 -876l350 876h195l-492 -1224q-78 -199 -152 -261q-73 -61 -198 -61h-147v154h108q76 0 118 36t93 170l33 84zM334 1262l190 376h170l-223 -376h-137zM653 1262l205 376h178l-248 -376h-135z" />
<glyph unicode="&#x4f4;" horiz-adv-x="1404" d="M175 1083v410h201v-394q0 -317 248 -317h376v711h203v-1493h-203v612h-417q-186 0 -297 116q-111 117 -111 355zM419 1667v203h203v-203h-203zM810 1667v203h203v-203h-203z" />
<glyph unicode="&#x4f5;" horiz-adv-x="1210" d="M150 836v284h184v-267q0 -118 52 -176q53 -59 157 -59h297v502h184v-1120h-184v471h-343q-152 0 -255 95q-92 86 -92 270zM309 1350v202h203v-202h-203zM700 1350v202h203v-202h-203z" />
<glyph unicode="&#x4f6;" horiz-adv-x="1249" d="M201 0v1493h929v-170h-727v-1153h201v-491h-201v321h-202z" />
<glyph unicode="&#x4f7;" horiz-adv-x="1076" d="M186 0v1120h790v-170h-606v-797h184v-436h-184v283h-184z" />
<glyph unicode="&#x4f8;" horiz-adv-x="1807" d="M201 0v1493h202v-614h334q254 0 388.5 -110.5t134.5 -329.5t-134.5 -329t-388.5 -110h-536zM403 166h324q162 0 241 68q79 67 79 205q0 140 -79 207q-77 67 -241 67h-324v-547zM654 1667v203h203v-203h-203zM1045 1667v203h203v-203h-203zM1404 0v1493h202v-1493h-202z " />
<glyph unicode="&#x4f9;" horiz-adv-x="1617" d="M186 0v1120h185v-457h270q217 0 331 -82.5t114 -248.5t-114 -249t-331 -83h-455zM371 147h262q126 0 191.5 47.5t65.5 137.5t-65.5 137t-191.5 47h-262v-369zM479 1350v202h203v-202h-203zM870 1350v202h203v-202h-203zM1251 0v1120h184v-1120h-184z" />
<glyph unicode="&#x4fa;" horiz-adv-x="1382" d="M71 660v170h263v663h929v-170h-727v-493h547v-170h-547v-532h361v-148q0 -199 -71 -296q-83 -110 -273 -110h-254v156h233q106 0 143 49q38 49 38 221h-379v660h-263z" />
<glyph unicode="&#x4fb;" horiz-adv-x="1209" d="M56 500v170h263v450h790v-157h-606v-293h416v-170h-416v-372h366v-148q0 -201 -70 -296q-83 -110 -274 -110h-254v156h233q106 0 143 49q38 49 38 221h-366v500h-263z" />
<glyph unicode="&#x4fc;" horiz-adv-x="1403" d="M61 0l533 797l-465 696h217l371 -555l373 555h217l-480 -717l495 -750q1 -1 -1 -26q-15 -190 -98 -288q-102 -122 -330 -122h-76v170h62q135 0 190 75q41 53 51 168l-418 632l-423 -635h-218z" />
<glyph unicode="&#x4fd;" horiz-adv-x="1212" d="M59 0l435 586l-398 534h217l297 -399l297 399h217l-405 -545l363 -489q27 -37 27 -95q0 -205 -67 -302q-81 -115 -277 -115h-193v156q196 0 221 3q80 11 105 65q27 54 27 206l-323 436l-326 -440h-217z" />
<glyph unicode="&#x4fe;" horiz-adv-x="1403" d="M61 0l468 700h-372v144h406l-434 649h217l371 -555l373 555h217l-434 -649h372v-144h-368l462 -700h-217l-420 635l-423 -635h-218z" />
<glyph unicode="&#x4ff;" horiz-adv-x="1212" d="M59 0l383 516h-289v144h286l-343 460h217l297 -399l297 399h217l-342 -460h269v-144h-288l382 -516h-217l-326 440l-326 -440h-217z" />
<glyph unicode="&#x10a0;" horiz-adv-x="1627" d="M109 710q0 455 326 653l-253 -1v182l1231 -9v-182l-700 10q-431 -173 -431 -653q0 -244 144 -417q144 -171 393 -170q227 -2 376 171q150 172 150 399q0 157 -85 349l142 68q116 -197 116 -411q0 -313 -202 -518q-201 -205 -500 -205q-304 0 -506 211q-201 211 -201 523z " />
<glyph unicode="&#x10a1;" horiz-adv-x="1356" d="M109 1063q0 257 227 481h238q-294 -226 -294 -475q2 -164 94 -255q94 -92 196 -92q143 0 301 80v742h175v-1394h274v-147h-449v641q-156 -67 -295 -67q-206 0 -337 141q-130 142 -130 345z" />
<glyph unicode="&#x10a2;" horiz-adv-x="1304" d="M110 1201q-2 158 114 259q116 102 282 102q172 0 278 -109q106 -107 106 -267v-1037h332v-421h-179v275h-326v1167q1 249 -202 249q-116 0 -174.5 -54.5t-58.5 -158.5q0 -94 91 -185l-132 -112q-131 164 -131 292z" />
<glyph unicode="&#x10a3;" horiz-adv-x="1535" d="M111 675q-1 526 583 668v49h-509v152h1168v-152h-508l1 -47q580 -148 580 -673q0 -298 -188 -498q-188 -198 -466 -197q-275 -2 -469 197q-193 200 -192 501zM282 672q0 -235 140 -393q139 -157 350 -157q215 0 348 160q134 160 136 390q-2 242 -152 390 q-151 149 -336 149q-189 0 -338 -149q-148 -148 -148 -390z" />
<glyph unicode="&#x10a4;" horiz-adv-x="1173" d="M109 1123q0 160 124 299q125 140 344 140q207 0 337 -136q131 -137 131 -409v-1013h-173v1012q0 236 -89 319t-206 83q-137 0 -216 -78q-80 -78 -80 -209q0 -191 125 -313l-110 -128q-187 172 -187 433z" />
<glyph unicode="&#x10a5;" horiz-adv-x="1473" d="M109 1187q0 155 114 264q116 111 281 111q169 0 277 -105q108 -103 108 -261v-120h474v-599h-170v453h-304v-925h-174v1195q0 124 -62 171t-148 47q-97 0 -161 -48t-64 -177q0 -69 82 -170l-113 -128q-140 163 -140 292z" />
<glyph unicode="&#x10a6;" horiz-adv-x="1392" d="M45 1392v152h472l1 -466l227 -2q241 1 389 -131q147 -130 149 -400q-1 -260 -129 -415q-127 -154 -336 -154q-216 0 -343 117t-127 398v901h-303zM517 506q0 -222 69 -303t232 -80q113 -2 202 95t89 341q0 226 -101 300q-100 73 -263 73l-227 -1z" />
<glyph unicode="&#x10a7;" horiz-adv-x="1737" d="M110 774q-1 352 206 570t589 218h272v-485h469v-627h-169v480h-300v-954h-272q-373 -1 -585 217t-210 581zM280 774q0 -257 143 -454t472 -197h107l-1 1296h-106q-313 -1 -464 -178q-151 -176 -151 -467z" />
<glyph unicode="&#x10a8;" horiz-adv-x="836" d="M36 1386v290h172v-140l501 9v-1540h-174v1390z" />
<glyph unicode="&#x10a9;" horiz-adv-x="1153" d="M109 810v734h172l-1 -299q195 72 293 72q221 0 346 -150q125 -151 125 -366v-797h-173v352q-169 -77 -298 -77q-224 2 -344 148q-120 149 -120 383zM280 775q0 -143 75 -247q76 -103 222 -103q109 2 295 68v360q-2 108 -78 213t-217 105q-135 0 -297 -53v-343z" />
<glyph unicode="&#x10aa;" horiz-adv-x="1623" d="M109 916v629h641v-523q147 55 276 55q238 0 363 -146t125 -425q0 -278 -145 -404q-144 -126 -320 -126q-214 -1 -342 137q-128 140 -128 415v872h-298v-484h-172zM750 526q0 -238 82 -320t211 -84q107 2 201 76q96 75 97 322q0 242 -104 326q-103 84 -221 84 q-126 0 -266 -54v-350z" />
<glyph unicode="&#x10ab;" horiz-adv-x="1659" d="M110 525q-1 264 139 409q139 144 371 144h252v313l-621 -9v155l794 9v-468h487l-18 -1073h-174l18 926h-313v-406q0 -252 -111 -400q-110 -149 -359 -148q-179 -1 -323 136t-142 412zM282 525q2 -199 86 -301q86 -102 207 -102q164 0 230 101q67 101 67 302v406h-252 q-118 0 -228 -88q-110 -89 -110 -318z" />
<glyph unicode="&#x10ac;" horiz-adv-x="1172" d="M127 5v1172q0 186 104.5 276.5t322.5 90.5l407 1v-155l-447 1q-118 0 -167 -41q-47 -41 -47 -189v-157q140 73 297 73q229 0 347 -138q119 -137 119 -367l-19 -567h-171l18 574q0 204 -86 278t-226 74q-161 0 -279 -88v-838h-173z" />
<glyph unicode="&#x10ad;" horiz-adv-x="1627" d="M109 773q0 329 208 558q209 231 493 231t496 -231q212 -230 212 -559q0 -252 -127 -451t-300 -276q2 -218 136 -218q127 3 127 177h164q0 -312 -293 -312q-273 0 -295 298l-117 -13q-296 0 -500 235q-204 236 -204 561zM282 773q0 -281 159 -466q161 -185 369 -185 q235 0 385 198q150 200 150 453q0 251 -155 448t-381 197q-217 0 -372 -194t-155 -451z" />
<glyph unicode="&#x10ae;" horiz-adv-x="1453" d="M36 1409v153h526v-1088q0 -156 87 -254q88 -97 214 -97q126 -1 207 96t81 255v1088h175v-1093q-2 -198 -128 -345t-334 -147q-204 0 -339 144q-135 145 -135 357v931h-354z" />
<glyph unicode="&#x10af;" horiz-adv-x="1217" d="M109 1400v145h429v-133q-212 -106 -214 -364q0 -155 82.5 -241t242.5 -86q107 0 267 78v747h174v-1541h-174v643q-139 -70 -260 -70q-229 -1 -365 125q-135 127 -136 356q1 144 150 341h-196z" />
<glyph unicode="&#x10b0;" horiz-adv-x="1733" d="M109 444q0 258 171 388l105 -103q-104 -107 -104 -285q2 -140 92 -230q91 -91 207 -91q155 0 224 98t69 296v1029h172v-470h561l-9 -953h-171l9 808h-390v-414q0 -275 -133 -408q-132 -132 -332 -132q-207 0 -339 138q-132 139 -132 329z" />
<glyph unicode="&#x10b1;" horiz-adv-x="1174" d="M127 519v1026h172l1 -1028q0 -178 83 -287t230 -107q115 -1 196 99q82 100 82 300q0 188 -138 319l87 131q224 -176 225 -464q-2 -243 -140 -387q-139 -144 -312 -144q-243 0 -365 165q-121 164 -121 377z" />
<glyph unicode="&#x10b2;" horiz-adv-x="1173" d="M127 3v1560h424q235 -1 374 -145q139 -143 139 -356q0 -198 -138 -342q-136 -144 -375 -144h-252v-427h632v-146h-804zM299 721h252q144 2 241 84q100 83 98 257q2 173 -98 265q-98 92 -241 92h-252v-698z" />
<glyph unicode="&#x10b3;" horiz-adv-x="1627" d="M109 775q0 319 204 553q205 234 504 234q288 0 494 -233q207 -233 207 -557q0 -283 -183 -535q183 -115 183 -260q0 -285 -330 -285v143q173 0 174 145q-1 106 -113 154q-61 -51 -169 -104q-111 -53 -266 -53q-302 0 -504 238q-201 239 -201 560zM282 773 q0 -275 160 -463q161 -188 371 -188q222 0 377 191t155 459q0 250 -153 448q-152 198 -378 198q-227 0 -380 -200q-152 -200 -152 -445z" />
<glyph unicode="&#x10b4;" horiz-adv-x="1658" d="M109 984q0 280 158 426q160 146 394 146h347q236 0 388 -143t152 -429q0 -280 -153 -432q-152 -151 -387 -151h-89v-396h-167v396h-91q-236 -1 -395 151q-157 151 -157 432zM282 984q0 -186 116 -317q115 -130 263 -130h91v884h-91q-162 -1 -271 -124 q-108 -123 -108 -313zM919 537h89q165 0 264 131q99 129 101 315q-2 192 -98 314q-97 122 -267 124h-89v-884z" />
<glyph unicode="&#x10b5;" horiz-adv-x="1414" d="M109 886v421h171v-277h337v515h176v-531h512v-451h-171v306h-341v-864h-176v881h-508z" />
<glyph unicode="&#x10b6;" horiz-adv-x="1191" d="M127 1062q0 210 135 356q135 145 339 145q208 0 335 -148q126 -146 128 -344v-1095h-175v1089q0 157 -82 254q-81 99 -207 98q-124 0 -213 -98q-88 -97 -88 -254v-1089h-171z" />
<glyph unicode="&#x10b7;" horiz-adv-x="1192" d="M127 1025l28 520h171l-27 -519q1 -158 63 -232q63 -72 209 -72q165 0 319 77v746h175v-1540h-175v641q-179 -69 -311 -69q-230 0 -341 124q-111 125 -111 324z" />
<glyph unicode="&#x10b8;" horiz-adv-x="1191" d="M127 408v26h172v-23q0 -139 83 -214q84 -75 205 -75q129 0 216 75q87 77 87 227l1 228q-155 -75 -309 -75q-224 0 -339 142q-116 143 -116 310l28 516h172l-28 -516q2 -137 73 -222q72 -85 223 -85q146 0 295 80v743h174v-1121q0 -167 -112 -307q-112 -139 -363 -141 q-191 2 -326 110q-136 109 -136 322z" />
<glyph unicode="&#x10b9;" horiz-adv-x="1190" d="M127 5v1539h171l2 -511q150 44 290 44q195 0 334 -116q139 -115 139 -385l-19 -571h-172l18 621q1 133 -64 220q-64 85 -252 85q-124 0 -274 -43l-2 -883h-171z" />
<glyph unicode="&#x10ba;" horiz-adv-x="1531" d="M110 782q-1 345 212 563q215 218 555 218q246 -2 469 -151l-93 -160q-199 166 -382 166q-238 0 -413 -171q-176 -170 -176 -465q0 -274 174 -468q176 -192 426 -191q144 -1 366 142v457h174v-719h-174v88q-215 -115 -362 -115q-360 2 -568 237t-208 569z" />
<glyph unicode="&#x10bb;" horiz-adv-x="1644" d="M109 544q0 247 148 389q149 144 389 144h227v468h173v-468h471v-1074h-170v928h-301v-432q0 -267 -126 -395q-124 -127 -314 -127q-236 0 -367 152q-130 151 -130 415zM282 544q0 -199 90 -311q92 -111 232 -111q122 0 196 90q73 89 73 287v432h-227q-180 0 -272 -122 t-92 -265z" />
<glyph unicode="&#x10bc;" horiz-adv-x="1173" d="M127 3v1541h577q170 0 264 -102q96 -102 96 -255q0 -154 -96 -265q-95 -110 -264 -110h-405v-236h482v-354h-172v213h-310v-432h-172zM299 953h405q73 0 130 59q59 59 57 172q0 215 -187 215h-405v-446z" />
<glyph unicode="&#x10bd;" horiz-adv-x="1196" d="M109 530h177q0 -166 91 -287t247 -121q287 0 287 294q0 183 -378 336q-378 154 -378 416q0 145 115 269q116 125 308 125q206 0 314 -130t108 -320h-169q0 180 -77 243q-76 63 -186 63q-118 0 -181 -69q-61 -67 -60 -174q0 -185 380 -346t380 -403q0 -191 -126 -320 t-333 -129q-244 0 -382 162q-137 164 -137 391z" />
<glyph unicode="&#x10be;" horiz-adv-x="1191" d="M127 3v1541h173v-802q125 -20 292 -20q120 0 209 70q90 71 90 314v438h173v-418q0 -282 -133 -416t-349 -133q-148 0 -282 21v-448h641v-147h-814z" />
<glyph unicode="&#x10bf;" horiz-adv-x="1322" d="M45 1405v141h1241l-482 -791l315 -580l-196 -5l-213 461l-369 -626h-200l490 785l-354 615h-232zM478 1405l250 -487l304 487h-554z" />
<glyph unicode="&#x10c0;" horiz-adv-x="1644" d="M109 1059v486h640v-1077q2 -125 78 -236q78 -110 231 -110q118 0 202 95t84 251v609h171v-596q2 -221 -134 -362q-136 -142 -325 -142q-235 0 -356 157q-122 158 -122 347v919h-298v-341h-171z" />
<glyph unicode="&#x10c1;" horiz-adv-x="1109" d="M127 5v1540h171l2 -468h223q171 0 269 -86t98 -238v-89h174v-146l-343 1v145q0 140 -41 204q-40 63 -159 63h-221l-1 -926h-172z" />
<glyph unicode="&#x10c2;" d="M110 526q-2 212 165 387l124 -119q-117 -123 -117 -269q0 -208 104 -306q103 -97 257 -97q192 0 282 105q91 106 91 290q1 259 -351 409q-351 152 -351 375q0 117 88 189q89 72 203 72q133 0 221 -72t88 -200h-176q-2 128 -133 128q-113 0 -115 -113q2 -167 352 -311 q352 -142 352 -477q0 -255 -166 -397q-167 -143 -388 -143q-218 0 -375 143q-155 143 -155 406z" />
<glyph unicode="&#x10c3;" horiz-adv-x="1109" d="M45 996v144h341v-99q-12 -93 29 -207q40 -112 185 -112h207v823h175v-1540h-175v571h-204q-195 2 -291 121t-94 281v18h-173z" />
<glyph unicode="&#x10c4;" horiz-adv-x="1159" d="M127 1057v488h172v-490q-1 -181 70 -259q71 -75 159 -75h119q48 0 129 75q82 76 82 259v490h174v-488q0 -267 -145 -369q-145 -103 -212 -104v-579h-171v579q-83 2 -230 105t-147 368z" />
<glyph unicode="&#x10c5;" horiz-adv-x="1419" d="M92 322q-1 131 95 234q97 103 261 103h176v255h-347v135h347v165q2 172 89 259q89 89 236 89q172 0 275 -85t104 -227q-2 -144 -102 -240t-276 -96h-162v-255h315v-138h-315v-217q-2 -142 -104 -234q-101 -92 -236 -94q-160 2 -258 92q-98 92 -98 254zM263 322 q1 -92 48.5 -146t134.5 -53q69 -1 124 46q54 48 54 135v217h-176q-63 0 -124 -43q-59 -43 -61 -156zM788 1049h162q95 0 149 55q55 55 55 142q0 91 -55 131q-55 41 -133 41q-92 2 -135 -60q-44 -63 -43 -144v-165z" />
<glyph unicode="&#x10d0;" horiz-adv-x="1183" d="M111 588q0 187 100 381l160 -93q-77 -204 -77 -310q1 -238 87 -340q87 -102 208 -103q120 2 199 84q80 82 100 349q1 348 -227 545q-226 196 -225 460h175q1 -210 231 -405q231 -195 231 -576q-2 -244 -125 -424q-124 -180 -359 -180q-218 0 -348 181q-131 183 -130 431z " />
<glyph unicode="&#x10d1;" horiz-adv-x="1182" d="M110 522q0 161 53 281q99 221 365 246l26 166q15 102 -83 147q-97 46 -97 197h187q-1 -70 82 -122q84 -52 73 -201l-36 -191q111 -13 198 -69q88 -54 141 -173q53 -120 53 -281q0 -172 -59 -295q-59 -122 -170 -186q-112 -65 -251 -65q-141 0 -254 65q-228 134 -228 481z M294 518q0 -210 86 -302q85 -91 211 -91t211 91q86 92 86 302q0 202 -84 294q-84 91 -193 91q-149 0 -233 -91q-84 -92 -84 -294z" />
<glyph unicode="&#x10d2;" horiz-adv-x="1320" d="M110 576q0 237 152 401q152 166 397 164q63 1 135 -10q35 73 35 130q0 79 -48.5 117.5t-155.5 38.5q-105 0 -159.5 -41t-56.5 -117l-173 1q-1 147 111 223t278 76q157 0 264 -70t109 -213q0 -123 -58 -200q270 -168 270 -500q0 -297 -155 -449q-154 -151 -395 -151 q-253 0 -402 158q-148 158 -148 442zM294 573q1 -256 114 -352q113 -95 260 -97q150 2 253 103q104 104 104 349q0 175 -94 293q-93 118 -272 120q-161 -2 -263 -115q-101 -114 -102 -301z" />
<glyph unicode="&#x10d3;" horiz-adv-x="1788" d="M110 993q3 267 122 417.5t359 149.5q180 0 305 -92q134 92 301 92q240 1 359 -149.5t122 -417.5q0 -182 -59 -314q-57 -129 -168.5 -199t-253.5 -70q-141 0 -253 69q-111 70 -169.5 201t-58.5 313q0 170 53 299l31 63q-105 57 -208 57q-130 0 -213 -105 q-83 -104 -83 -316q-2 -404 379 -694q334 -48 478 -131q143 -83 176 -167h-269q-19 68 -112 106q-90 37 -336 37q-197 5 -377 -40v168q87 18 225 10q-350 302 -350 713zM900 994q0 -234 85 -335q86 -101 212 -101q125 0 211 101q86 103 86 335q0 224 -84 321q-83 98 -213 98 t-214 -98q-83 -98 -83 -321z" />
<glyph unicode="&#x10d4;" horiz-adv-x="1182" d="M110 443q0 94 88 243l171 -44q-75 -106 -75 -254q0 -109 86 -186t202 -77q114 0 187 52q72 51 92 125q19 70 17 249v645q0 100 -84 161q-85 62 -189 62q-125 0 -193 -69q-66 -69 -66 -153q0 -102 53 -170l-156 -81q-77 128 -77 246q0 153 124 259q124 108 319 108 q205 0 323 -111q119 -111 120 -256v-641q0 -243 -51 -347t-161 -164.5t-258 -61.5q-154 2 -262 62q-210 117 -210 403z" />
<glyph unicode="&#x10d5;" horiz-adv-x="1204" d="M110 441q0 92 68 263l185 -56q-69 -114 -69 -262q0 -109 86 -186q85 -75 212 -75q124 0 210 72q87 72 87 175v138q0 125 -67 199q-68 75 -153 75h-104v149h104q83 0 141 73q59 74 59 169q0 97 -68 170q-67 73 -184 73q-134 0 -203 -69q-68 -68 -68 -130q0 -72 28 -129 l-175 -58q-33 87 -33 190q0 128 128 233q128 106 325 106q203 0 318 -118q117 -119 117 -268q0 -214 -203 -315q223 -139 223 -364q0 -207 -52 -302q-53 -99 -164 -157.5t-266 -59.5q-238 1 -361.5 127.5t-120.5 336.5z" />
<glyph unicode="&#x10d6;" horiz-adv-x="1262" d="M110 1206q0 94 38 179q82 176 320 176q126 0 202 -46q154 -93 154 -293q0 -94 -39 -159q95 -17 157 -56q210 -131 210 -475q0 -182 -59 -305q-59 -122 -170 -186q-112 -65 -251 -65q-141 0 -254 65q-228 134 -228 491q0 171 80 343q-81 58 -121 130q-39 73 -39 201z M279 1191q0 -131 108 -206q80 80 230 83q44 53 44 133q0 130 -58 173q-59 44 -133 44q-90 0 -140.5 -56t-50.5 -171zM374 528q0 -220 86 -312q85 -91 211 -91t211 91q86 92 86 312q0 212 -84 304q-84 91 -213 91t-213 -91q-84 -92 -84 -304z" />
<glyph unicode="&#x10d7;" horiz-adv-x="1787" d="M110 778q3 370 122 576t359 205q189 0 302 -129q115 129 303 129q168 0 271 -96q105 -97 157 -271q53 -177 53 -343q0 -475 -240 -860h-243q302 401 302 885q0 252 -84 397q-84 147 -215 147t-200 -121q74 -255 74 -519q0 -252 -59 -432q-57 -178 -168 -274t-253 -96 q-140 0 -253 95q-112 96 -170 275.5t-58 431.5zM294 780q0 -352 85 -503q86 -152 212 -152q125 0 211 152t86 503q0 334 -84 486q-83 152 -213 152t-214 -152q-83 -152 -83 -486z" />
<glyph unicode="&#x10d8;" horiz-adv-x="1181" d="M110 815q0 197 53 374q112 370 427 370q168 0 271 -97q105 -99 157 -273q53 -177 53 -374q0 -311 -184 -815h-198q198 436 198 838q0 282 -84 431q-82 148 -213 148q-129 0 -213 -148q-83 -149 -83 -431q0 -402 207 -838h-207q-184 504 -184 815z" />
<glyph unicode="&#x10d9;" horiz-adv-x="1204" d="M110 491q0 173 78 313l172 -53q-65 -88 -65 -255q0 -218 85 -294q86 -77 212 -77q124 0 192 51q68 53 86 144q19 89 19 204q0 196 -64 281q-63 85 -169 85h-113v152h121q204 0 204 202q0 134 -258 316h278q164 -143 164 -311q0 -181 -171 -285q83 -47 138 -148 q55 -100 55 -285q0 -222 -52 -327q-52 -107 -162 -166.5t-268 -59.5q-162 0 -272 60q-109 61 -160 164q-50 105 -50 289z" />
<glyph unicode="&#x10da;" horiz-adv-x="2306" d="M110 1003q0 181 53 299q55 121 159.5 189.5t248.5 68.5q199 0 297 -152q98 162 279 162q193 0 291 -162q83 152 297 152q148 0 251 -70q105 -71 157 -183q53 -114 53 -304q0 -272 -224 -523h-268q308 231 308 524q0 244 -84 329q-83 86 -193 86q-211 0 -211 -326v-308 h-184v308q0 336 -193 336t-193 -336v-308h-184v308q0 326 -199 326q-110 0 -194 -91q-83 -92 -83 -324q2 -392 492 -633q423 -18 658 -125q234 -106 255 -243h-249q-29 107 -190 158t-380 51q-282 0 -575 -67v168q122 23 250 26q-445 241 -445 664z" />
<glyph unicode="&#x10db;" horiz-adv-x="1202" d="M110 522q4 252 122.5 391.5t359.5 138.5q166 0 306 -149v294q0 96 -80 158q-80 63 -201 63q-130 0 -200.5 -48.5t-70.5 -143.5h-180q-2 149 121 241q124 92 332 92q193 0 323 -107q130 -106 130 -260v-670q0 -172 -59 -295q-59 -122 -170 -186q-112 -65 -251 -65 q-141 0 -254 65q-228 134 -228 481zM294 518q0 -210 86 -302q85 -91 211 -91q125 0 216 91t91 302q0 201 -89 293t-218 92t-213 -92q-84 -91 -84 -293z" />
<glyph unicode="&#x10dc;" horiz-adv-x="1202" d="M130 522v705q0 170 95 245q95 76 345 76h415v-156h-459q-147 0 -185 -35q-37 -34 -37 -130v-318q140 143 308 143q239 1 358 -139t122 -391q0 -172 -59 -295q-59 -122 -170 -186q-112 -65 -251 -65q-141 0 -254 65q-228 134 -228 481zM304 518q0 -211 91 -302t216 -91 q126 0 211 91q86 92 86 302q0 202 -84 293q-84 92 -213 92t-218 -92t-89 -293z" />
<glyph unicode="&#x10dd;" horiz-adv-x="1777" d="M110 804q0 228 53 395q52 164 157 263q103 97 261 97q189 1 307 -210q104 210 308 210q158 0 261 -97q210 -195 210 -658q0 -393 -334 -805h-238q388 385 388 831q0 318 -84 453q-83 135 -213 135q-210 0 -210 -309l1 -560h-187v562q1 307 -198 307q-129 0 -213 -135 q-83 -136 -83 -453q0 -445 395 -831h-247q-334 412 -334 805z" />
<glyph unicode="&#x10de;" horiz-adv-x="1202" d="M110 529q0 100 49 238l176 -44q-41 -111 -41 -198q0 -217 86 -309q85 -91 211 -91t211 91q86 92 86 359q0 124 -79 210q-79 88 -198 88h-110v149h172q97 0 141 26q44 27 44 135q0 153 -287 176q-286 24 -286 200h221q0 -68 268 -98t268 -283q1 -148 -167 -244 q98 -61 148 -162q49 -99 49 -193q0 -229 -59 -352q-59 -122 -170 -186q-112 -65 -251 -65q-141 0 -254 65q-228 134 -228 488z" />
<glyph unicode="&#x10df;" horiz-adv-x="1202" d="M110 441q0 93 48 183l166 -47q-30 -103 -30 -191q0 -109 86 -186q85 -76 212 -76q124 0 197 52q72 52 92 124q19 74 18 249l-1 826l-283 -31v-169q0 -155 -121 -261q-121 -104 -312 -106l-2 161q87 0 174 51q87 52 87 182l-1 125l-272 -42v141l730 90v32h174v-996 q0 -246 -51 -350q-52 -105 -162.5 -165t-266.5 -59q-237 -1 -361 127t-121 336z" />
<glyph unicode="&#x10e0;" horiz-adv-x="1777" d="M111 629q-1 438 284 687q284 250 720 250v-149q-132 1 -354 -72t-397 -253q116 74 258 74q146 0 267 -192q102 192 307 192q158 0 261 -70q105 -71 157 -198q53 -129 53 -269q0 -352 -314 -630h-248q378 258 378 631q0 192 -84 290q-83 98 -213 98q-211 0 -211 -249v-338 h-184v338q0 249 -159 249q-337 0 -337 -388q0 -374 387 -631h-257q-314 278 -314 630z" />
<glyph unicode="&#x10e1;" horiz-adv-x="1202" d="M130 559v997h174v-996q0 -233 90 -335q92 -101 217 -101t211 101q86 103 86 315q0 162 -130 280q-129 119 -131 376h181q0 -240 132 -347q132 -105 132 -310q0 -162 -59 -294q-57 -129 -168.5 -199t-253.5 -70q-141 0 -253 69q-111 70 -169.5 201t-58.5 313z" />
<glyph unicode="&#x10e2;" horiz-adv-x="1466" d="M110 731q0 351 155 536q157 185 400 209l-20 74h170l-17 -73q245 -23 401 -208q157 -185 157 -538q0 -356 -167 -556q-167 -198 -456 -198q-288 0 -456 198q-167 199 -167 556zM294 733q0 -288 119 -449q119 -159 320 -159q203 0 319 158q117 157 117 448q0 287 -106 435 q-105 151 -265 173l27 -763h-189l29 762q-159 -26 -265 -171q-107 -147 -106 -434z" />
<glyph unicode="&#x10e3;" horiz-adv-x="1264" d="M110 1457l52 132q61 -40 119 -40h114q122 0 193 -104q84 114 248 114q109 0 203 -79q95 -78 95 -182v-745q0 -247 -51 -351q-51 -105 -161.5 -164.5t-267.5 -59.5q-120 0 -213.5 34.5t-152.5 97t-88.5 146.5t-27.5 185q0 94 88 243l170 -60q-74 -91 -74 -238 q0 -108 86 -185q85 -76 212 -76q124 0 197 51q73 52 91 124q20 74 18 249v745q0 55 -43 89q-43 35 -99 35q-60 0 -105 -30t-45 -80v-370h-175v370q0 45 -32 72q-31 28 -67 28h-113q-95 0 -171 49z" />
<glyph unicode="&#x10e4;" horiz-adv-x="1845" d="M110 1017q0 145 53 274q111 268 428 268q235 0 354 -171q119 171 330 171q200 0 320 -108q120 -106 120 -292q0 -286 -181 -391q164 -131 164 -310q-3 -266 -173 -373t-457 -107q-270 0 -443 90q-172 91 -188 239h191q130 -183 415 -183q271 0 372 81t104 251 q0 76 -50 155q-49 79 -118 79h-96l2 156h87q74 -1 130 91q55 91 55 230q0 112 -60 181q-60 70 -195 70q-106 0 -177 -65t-47 -156q22 -106 22 -180q0 -157 -59 -289q-57 -129 -168.5 -199t-253.5 -70q-141 0 -253 69q-112 71 -170 200t-58 289zM294 1018q0 -209 85 -310 q86 -101 212 -101q125 0 211 101q86 103 86 310q0 184 -84 292q-82 108 -213 108q-130 0 -214 -101q-83 -101 -83 -299z" />
<glyph unicode="&#x10e5;" horiz-adv-x="1202" d="M110 440q0 94 78 263l163 -55q-57 -116 -57 -263q0 -108 86 -185q85 -76 212 -76q124 0 197 51q72 52 92 124q19 73 18 249l-1 455q0 99 -94 180q-93 81 -237 81q-107 0 -144 -73q-37 -71 -37 -243h-180q-1 242 100 350q101 107 263 107q178 0 329 -127v281h174v-471 v-535q0 -249 -51 -352q-51 -105 -161.5 -164t-267.5 -60q-238 1 -361.5 128t-120.5 335z" />
<glyph unicode="&#x10e6;" horiz-adv-x="1776" d="M110 983q0 274 120 425.5t351 151.5q188 0 307 -152q102 152 307 152q158 0 261 -70q105 -71 157 -198q53 -129 53 -259q0 -282 -239 -563h-233q288 261 288 564q0 182 -84 283q-82 100 -213 100q-211 0 -211 -234v-438h-184v438q0 234 -199 234q-130 0 -214 -100 q-83 -101 -83 -333q1 -337 366 -634q288 -13 445 -107q156 -91 224 -243h-249q-38 119 -149 165q-111 47 -341 39q-213 -19 -365 -79v158q24 5 235 48q-350 320 -350 652z" />
<glyph unicode="&#x10e7;" horiz-adv-x="1202" d="M110 481q0 44 28 143l171 -64q-15 -84 -15 -174q0 -108 86 -185q85 -76 212 -76q124 0 197 51q73 52 91 122q17 68 19 267l-1 232q-144 -74 -286 -76q-143 2 -252 61q-210 116 -210 412q0 153 138 342h212q-166 -188 -166 -357q0 -159 86 -234q86 -74 192 -74 q103 0 195 56q91 55 91 171v426h174v-974q-1 -246 -52 -350q-50 -104 -160.5 -163t-267.5 -59q-162 0 -272 60q-109 61 -160 164q-50 105 -50 279z" />
<glyph unicode="&#x10e8;" horiz-adv-x="1208" d="M110 1264v96q0 199 219 199q181 0 243 -125q77 125 264 125q106 0 172 -67q66 -68 66 -168v-800q4 -174 -55 -297q-59 -122 -170 -186q-112 -65 -251 -65q-141 0 -254 65q-228 134 -228 482q4 250 122.5 390t359.5 139q166 0 302 -144v453q0 69 -106 69q-128 0 -128 -69 v-102q-92 -30 -184 0v102q0 69 -104 69q-84 0 -84 -69v-97h-184zM300 519q0 -211 86 -303q85 -91 211 -91q125 0 216 91t91 303q0 200 -89 292t-218 92t-213 -92q-84 -91 -84 -292z" />
<glyph unicode="&#x10e9;" horiz-adv-x="1202" d="M130 0v1224q0 336 370 336q378 0 380 -300h-184q-6 158 -190 158q-202 0 -202 -172v-340q116 134 308 146q239 1 358 -139t122 -391q0 -302 -241 -534h-252q309 230 309 530q0 202 -84 294q-84 91 -213 91q-128 0 -219 -74q-89 -74 -88 -293v-536h-174z" />
<glyph unicode="&#x10ea;" horiz-adv-x="1388" d="M110 810q0 358 206 735h197q-220 -308 -220 -717q0 -291 106 -497q107 -207 311 -207q218 0 301 131q82 131 82 303q0 179 -154 192h-294v149h266q50 3 91 40q42 37 42 182q0 95 -115 152q-115 58 -116 272h171q2 -129 122 -208q122 -80 122 -191q-1 -192 -177 -272 q227 -131 226 -326q0 -247 -149 -410q-149 -161 -418 -161q-267 2 -433 232q-167 232 -167 601z" />
<glyph unicode="&#x10eb;" horiz-adv-x="1202" d="M110 559q3 267 122 417.5t359 149.5q168 0 307 -127v557h174v-991v-6q0 -182 -59 -314q-57 -129 -168.5 -199t-253.5 -70q-141 0 -253 69q-111 70 -169.5 201t-58.5 313zM294 560q0 -234 85 -335q86 -101 212 -101t216 101q91 101 91 335q0 223 -89 324t-218 101 q-130 0 -214 -101q-83 -101 -83 -324z" />
<glyph unicode="&#x10ec;" horiz-adv-x="1208" d="M134 524v801q0 101 66 168t192 67q167 0 244 -125q62 125 243 125q219 0 219 -199v-96h-184v97q0 69 -84 69q-104 0 -104 -69v-102q-92 -30 -184 0v102q0 69 -108 69q-126 0 -126 -69v-442q136 132 322 132q220 0 341 -142t121 -387q0 -173 -59 -296q-59 -122 -170 -186 q-112 -65 -233 -65q-239 0 -370.5 144.5t-125.5 403.5zM304 519q0 -212 91 -303t236 -91q106 0 191 91q86 92 86 303q0 201 -84 292q-84 92 -193 92q-149 0 -238 -92t-89 -292z" />
<glyph unicode="&#x10ed;" horiz-adv-x="1210" d="M110 441q0 94 88 243l161 -61q-65 -89 -65 -237q0 -108 86 -185q85 -76 212 -76q124 0 192 51q69 54 88 124q21 75 20 249l-28 335h-366q-144 0 -239 89q-95 90 -95 211q0 114 84 205q85 93 220 93h333l-3 77h184l3 -77h109v-142h-87l65 -786q0 -248 -51 -352 q-51 -105 -161.5 -164t-267.5 -60q-238 1 -361.5 128t-120.5 335zM348 1180q0 -53 37 -102q38 -50 102 -50h366l-29 312h-340q-52 0 -94 -46q-42 -45 -42 -114z" />
<glyph unicode="&#x10ee;" horiz-adv-x="1202" d="M130 559v997h174v-559q138 129 307 129q240 1 359 -149.5t122 -417.5q0 -182 -59 -314q-57 -129 -168.5 -199t-253.5 -70q-141 0 -253 69q-111 70 -169.5 201t-58.5 313zM304 560q0 -233 90 -335q92 -101 217 -101t211 101q86 103 86 335q0 224 -84 324q-83 101 -213 101 t-219 -101q-88 -100 -88 -324z" />
<glyph unicode="&#x10ef;" horiz-adv-x="1184" d="M110 475q0 81 40 202h195q-49 -105 -49 -199q0 -162 81 -258q83 -95 215 -95q130 0 214 86q84 85 84 277q-2 204 -111 297t-359 132l65 332l-305 54v162l331 -73l25 156h184l-53 -182l306 -57v-155l-327 69l-32 -203q160 -36 309 -151q151 -115 151 -389 q0 -238 -133 -371q-133 -132 -349 -132q-212 0 -347 136t-135 362z" />
<glyph unicode="&#x10f0;" horiz-adv-x="1203" d="M110 358v123h182v-94q0 -158 95 -211t231 -53q134 0 204 52q71 53 71 193q0 189 -99 189h-305v138h296q101 0 99 144q1 136 -99 136h-305v141h303q92 0 92 104q0 117 -184 126q-380 30 -380 219h167q0 -69 354 -97q223 -19 223 -234q0 -130 -129 -183q138 -59 138 -215 q0 -147 -132 -210q141 -98 141 -269q0 -381 -468 -381q-238 0 -366 100q-129 100 -129 282z" />
<glyph unicode="&#x10f1;" horiz-adv-x="1183" d="M130 418v1083h182v-1054q0 -218 95 -271t211 -53q114 0 184 52q71 53 71 203q0 219 -99 219h-265v138h256q100 0 99 154q2 146 -99 146h-265v141h263q92 0 86 136q0 115 -180 214h236q130 -102 130 -214q0 -148 -129 -201q138 -59 138 -225q0 -157 -132 -220 q141 -98 141 -299q0 -193 -113.5 -292t-334.5 -99q-218 0 -346 100q-129 100 -129 342z" />
<glyph unicode="&#x10f2;" horiz-adv-x="1141" d="M110 922q0 190 53 328q52 136 157 223q104 86 250 86q147 0 251 -86q210 -171 210 -551q0 -394 -320 -660q136 -85 320 -159v-162q-269 97 -459 219q-188 -121 -455 -219v163q183 75 316 158q-323 266 -323 660zM294 923q0 -333 277 -562q276 229 276 562q0 269 -84 382 q-83 113 -193 113q-109 0 -193 -113q-83 -113 -83 -382z" />
<glyph unicode="&#x10f3;" horiz-adv-x="1164" d="M110 441q0 92 68 243h202q-86 -151 -86 -298q0 -108 86 -185q85 -76 192 -76q104 0 190 72q87 73 87 175v138q0 125 -67 199q-68 75 -183 75h-64v149h64q112 0 171 80q59 82 59 347v48l-534 -40v-294h-185v443l904 40v-197q0 -378 -203 -500q223 -139 223 -404 q0 -166 -52 -261q-51 -96 -161 -156q-109 -59 -249 -61q-143 2 -252 61q-210 116 -210 402z" />
<glyph unicode="&#x10f4;" horiz-adv-x="1164" d="M110 441q0 92 68 243h202q-86 -151 -86 -298q0 -108 86 -185q85 -76 192 -76q104 0 190 72q87 73 87 175v88q0 195 -67 269q-68 75 -183 75h-104v149h104q113 0 171 105q59 107 59 202v36q-115 -82 -231 -82q-488 2 -488 347h185q0 -198 308 -198q142 -1 411 212v-285 q0 -288 -203 -410q223 -139 223 -444q0 -146 -52 -241q-51 -96 -161 -156q-109 -59 -249 -61q-143 2 -252 61q-210 116 -210 402z" />
<glyph unicode="&#x10f5;" horiz-adv-x="1229" d="M110 322q0 360 462 360h277v171h-277q-462 0 -462 360q0 346 462 346t462 -347v-210h105v-149h-105v-171h105v-149h-105v-210q0 -347 -462 -347t-462 346zM294 318q1 -193 277 -193q278 -2 278 198v210h-278q-275 1 -277 -215zM294 1217q2 -216 277 -215h278v210 q0 200 -278 198q-276 0 -277 -193z" />
<glyph unicode="&#x10fb;" horiz-adv-x="917" d="M110 -20v187h202v-187h-202zM110 803v189h205v-189h-205zM608 415v186h199v-186h-199z" />
<glyph unicode="&#x10fc;" horiz-adv-x="663" d="M100 1166v355q0 194 198 194h251v-96h-276q-65 0 -65 -76v-169l122 84q223 0 222 -292q0 -304 -228 -306q-224 0 -224 306zM208 1160q0 -195 116 -195q118 0 118 201q0 183 -123 183q-109 0 -111 -189z" />
<glyph unicode="&#x2000;" horiz-adv-x="1024" />
<glyph unicode="&#x2001;" horiz-adv-x="2048" />
<glyph unicode="&#x2002;" horiz-adv-x="1024" />
<glyph unicode="&#x2003;" horiz-adv-x="2048" />
<glyph unicode="&#x2004;" horiz-adv-x="675" />
<glyph unicode="&#x2005;" horiz-adv-x="512" />
<glyph unicode="&#x2006;" horiz-adv-x="342" />
<glyph unicode="&#x2007;" />
<glyph unicode="&#x2008;" horiz-adv-x="651" />
<glyph unicode="&#x2009;" horiz-adv-x="409" />
<glyph unicode="&#x200a;" horiz-adv-x="204" />
<glyph unicode="&#x200b;" horiz-adv-x="0" />
<glyph unicode="&#x200c;" horiz-adv-x="0" />
<glyph unicode="&#x200d;" horiz-adv-x="0" />
<glyph unicode="&#x200e;" horiz-adv-x="0" />
<glyph unicode="&#x200f;" horiz-adv-x="0" />
<glyph unicode="&#x2010;" horiz-adv-x="739" d="M100 479v164h539v-164h-539z" />
<glyph unicode="&#x2011;" horiz-adv-x="739" d="M100 479v164h539v-164h-539z" />
<glyph unicode="&#x2012;" d="M100 489v144h1103v-144h-1103z" />
<glyph unicode="&#x2013;" horiz-adv-x="1024" d="M100 489v144h824v-144h-824z" />
<glyph unicode="&#x2014;" horiz-adv-x="2048" d="M100 489v144h1848v-144h-1848z" />
<glyph unicode="&#x2015;" horiz-adv-x="2048" d="M0 489v144h2048v-144h-2048z" />
<glyph unicode="&#x2016;" horiz-adv-x="1024" d="M260 -483v2048h170v-2048h-170zM590 -483v2048h170v-2048h-170z" />
<glyph unicode="&#x2017;" horiz-adv-x="1024" d="M-20 -18h1064v-143h-1064v143zM-20 -340h1064v-143h-1064v143z" />
<glyph unicode="&#x2018;" horiz-adv-x="651" d="M174 1001v173l164 319h129l-82 -319v-173h-211z" />
<glyph unicode="&#x2019;" horiz-adv-x="651" d="M178 1022l82 319v152h211v-152l-164 -319h-129z" />
<glyph unicode="&#x201a;" horiz-adv-x="651" d="M174 -238l82 320v172h211v-172l-164 -320h-129z" />
<glyph unicode="&#x201b;" horiz-adv-x="651" d="M178 1341v152h211v-152l82 -319h-129z" />
<glyph unicode="&#x201c;" horiz-adv-x="1061" d="M174 1001v173l164 319h129l-82 -319v-173h-211zM584 1001v173l164 319h129l-82 -319v-173h-211z" />
<glyph unicode="&#x201d;" horiz-adv-x="1061" d="M174 1001l82 320v172h211v-172l-164 -320h-129zM584 1001l82 320v172h211v-172l-164 -320h-129z" />
<glyph unicode="&#x201e;" horiz-adv-x="1061" d="M174 -238l82 320v172h211v-172l-164 -320h-129zM584 -238l82 320v172h211v-172l-164 -320h-129z" />
<glyph unicode="&#x201f;" horiz-adv-x="1061" d="M174 1320v173h211v-173l82 -319h-129zM584 1320v173h211v-173l82 -319h-129z" />
<glyph unicode="&#x2020;" horiz-adv-x="1024" d="M57 920v153h367v420h176v-420h367v-153h-367v-1117h-176v1117h-367z" />
<glyph unicode="&#x2021;" horiz-adv-x="1024" d="M57 223v154h367v543h-367v153h367v420h176v-420h367v-153h-367v-543h367v-154h-367v-420h-176v420h-367z" />
<glyph unicode="&#x2022;" horiz-adv-x="1208" d="M307 762q0 123 86 209q88 86 213 86q123 0 209 -86t86 -209q0 -125 -86 -211t-211 -86t-211 86t-86 211z" />
<glyph unicode="&#x2023;" horiz-adv-x="1208" d="M307 385v752l674 -376z" />
<glyph unicode="&#x2024;" horiz-adv-x="685" d="M236 0v254h213v-254h-213z" />
<glyph unicode="&#x2025;" horiz-adv-x="1367" d="M236 0v254h213v-254h-213zM918 0v254h213v-254h-213z" />
<glyph unicode="&#x2026;" horiz-adv-x="2048" d="M236 0v254h213v-254h-213zM918 0v254h212v-254h-212zM1599 0v254h213v-254h-213z" />
<glyph unicode="&#x2027;" horiz-adv-x="651" d="M220 619v254h211v-254h-211z" />
<glyph unicode="&#x202a;" horiz-adv-x="0" />
<glyph unicode="&#x202b;" horiz-adv-x="0" />
<glyph unicode="&#x202c;" horiz-adv-x="0" />
<glyph unicode="&#x202d;" horiz-adv-x="0" />
<glyph unicode="&#x202e;" horiz-adv-x="0" />
<glyph unicode="&#x202f;" horiz-adv-x="409" />
<glyph unicode="&#x2030;" horiz-adv-x="2748" d="M113 1114q0 186 93 296t251 110q157 0 252 -110q94 -109 94 -296q0 -189 -94 -298q-93 -109 -252 -109t-252 109q-92 110 -92 298zM272 1114q0 -132 49 -206t136 -74t136.5 74t49.5 206q0 129 -50 204t-136 75t-135.5 -74.5t-49.5 -204.5zM426 -29l934 1549h160 l-934 -1549h-160zM1143 377q0 187 93 297q95 110 253 110t251 -110t93 -297q0 -188 -94 -297q-93 -109 -250 -109q-160 0 -253 109q-93 110 -93 297zM1303 377q0 -130 49.5 -204.5t136.5 -74.5q85 0 134.5 75t49.5 204q0 131 -49.5 205.5t-134.5 74.5q-87 0 -136.5 -74 t-49.5 -206zM1946 377q0 187 93 297q95 110 253 110t251 -110t93 -297q0 -188 -94 -297q-93 -109 -250 -109q-160 0 -253 109q-93 110 -93 297zM2105 377q0 -130 50 -204.5t137 -74.5q85 0 134.5 75t49.5 204q0 131 -49.5 205.5t-134.5 74.5q-87 0 -137 -74t-50 -206z" />
<glyph unicode="&#x2031;" horiz-adv-x="3554" d="M113 1114q0 186 93 296t251 110q157 0 252 -110q94 -109 94 -296q0 -189 -94 -298q-93 -109 -252 -109t-252 109q-92 110 -92 298zM272 1114q0 -132 49 -206t136 -74t136.5 74t49.5 206q0 129 -50 204t-136 75t-135.5 -74.5t-49.5 -204.5zM426 -29l934 1549h160 l-934 -1549h-160zM1143 377q0 187 93 297q95 110 253 110t251 -110t93 -297q0 -188 -94 -297q-93 -109 -250 -109q-160 0 -253 109q-93 110 -93 297zM1303 377q0 -130 49.5 -204.5t136.5 -74.5q85 0 134.5 75t49.5 204q0 131 -49.5 205.5t-134.5 74.5q-87 0 -136.5 -74 t-49.5 -206zM1946 377q0 187 93 297q95 110 253 110t251 -110t93 -297q0 -188 -94 -297q-93 -109 -250 -109q-160 0 -253 109q-93 110 -93 297zM2105 377q0 -130 50 -204.5t137 -74.5q85 0 134.5 75t49.5 204q0 131 -49.5 205.5t-134.5 74.5q-87 0 -137 -74t-50 -206z M2752 377q0 187 93 297q95 110 253 110t251 -110t93 -297q0 -188 -94 -297q-93 -109 -250 -109q-160 0 -253 109q-93 110 -93 297zM2911 377q0 -130 50 -204.5t137 -74.5q85 0 134.5 75t49.5 204q0 131 -49.5 205.5t-134.5 74.5q-87 0 -137 -74t-50 -206z" />
<glyph unicode="&#x2032;" horiz-adv-x="465" d="M40 1120l173 373h203l-289 -373h-87z" />
<glyph unicode="&#x2033;" horiz-adv-x="765" d="M40 1120l173 373h203l-289 -373h-87zM340 1120l173 373h203l-289 -373h-87z" />
<glyph unicode="&#x2034;" horiz-adv-x="1065" d="M40 1120l173 373h203l-289 -373h-87zM340 1120l173 373h203l-289 -373h-87zM640 1120l173 373h203l-289 -373h-87z" />
<glyph unicode="&#x2035;" horiz-adv-x="465" d="M40 1493h203l173 -373h-87z" />
<glyph unicode="&#x2036;" horiz-adv-x="765" d="M40 1493h203l173 -373h-87zM340 1493h203l173 -373h-87z" />
<glyph unicode="&#x2037;" horiz-adv-x="1065" d="M40 1493h203l173 -373h-87zM340 1493h203l173 -373h-87zM640 1493h203l173 -373h-87z" />
<glyph unicode="&#x2038;" horiz-adv-x="694" d="M11 -483l338 422l334 -422h-148l-187 249l-188 -249h-149z" />
<glyph unicode="&#x2039;" horiz-adv-x="819" d="M158 559v82l469 418v-191l-301 -268l301 -268v-191z" />
<glyph unicode="&#x203a;" horiz-adv-x="819" d="M193 141v191l301 268l-301 268v191l469 -418v-82z" />
<glyph unicode="&#x203b;" horiz-adv-x="1716" d="M196 590v254h211v-254h-211zM281 259l456 457l-456 459l118 121l459 -459l459 459l119 -121l-457 -459l457 -457l-119 -121l-459 459l-459 -459zM753 4v254h211v-254h-211zM753 1230v254h211v-254h-211zM1304 590v254h211v-254h-211z" />
<glyph unicode="&#x203c;" horiz-adv-x="994" d="M148 0v254h203v-254h-203zM148 838v655h203v-655l-20 -357h-162zM644 0v254h203v-254h-203zM644 838v655h203v-655l-20 -357h-162z" />
<glyph unicode="&#x203d;" horiz-adv-x="1087" d="M147 1219v188q186 113 390 113q185 0 295 -97q112 -97 112 -256q0 -76 -36 -145q-37 -70 -126 -154l-88 -86q-46 -46 -65.5 -72.5t-28.5 -52.5q-12 -42 -12 -133v-123h-191v941q-31 -8 -63 -21q-89 -34 -187 -102zM391 0v254h203v-254h-203zM588 916l45 45 q108 101 108 196q0 88 -65 144q-38 32 -88 45v-430z" />
<glyph unicode="&#x203e;" horiz-adv-x="1024" d="M-20 1404v143h1064v-143h-1064z" />
<glyph unicode="&#x203f;" horiz-adv-x="1646" d="M-89 -123q456 -208 911 -208q457 0 913 208v-126q-470 -236 -913 -236t-911 236v126z" />
<glyph unicode="&#x2040;" horiz-adv-x="1646" d="M-89 1540v126q468 236 911 236t913 -236v-126q-456 208 -913 208q-455 0 -911 -208z" />
<glyph unicode="&#x2041;" horiz-adv-x="512" d="M-86 -483l573 952h98l-286 -476l286 -476h-98l-237 394l-237 -394h-99z" />
<glyph unicode="&#x2042;" horiz-adv-x="2048" d="M61 214l359 195l-359 194l58 99l336 -203v377h114v-377l336 203l58 -99l-359 -194l359 -195l-58 -98l-336 203v-377h-114v377l-336 -203zM573 1005l359 195l-359 194l58 99l336 -203v377h114v-377l336 203l58 -99l-359 -194l359 -195l-58 -98l-336 203v-377h-114v377 l-336 -203zM1085 214l359 195l-359 194l58 99l336 -203v377h114v-377l336 203l58 -99l-359 -194l359 -195l-58 -98l-336 203v-377h-114v377l-336 -203z" />
<glyph unicode="&#x2043;" horiz-adv-x="1024" d="M221 641v222h598v-222h-598z" />
<glyph unicode="&#x2044;" horiz-adv-x="342" d="M-375 -29l932 1549h160l-932 -1549h-160z" />
<glyph unicode="&#x2045;" horiz-adv-x="799" d="M176 -270v1826h424v-143h-240v-733h240v-74h-240v-733h240v-143h-424z" />
<glyph unicode="&#x2046;" horiz-adv-x="799" d="M176 -127h240v733h-240v74h240v733h-240v143h424v-1826h-424v143z" />
<glyph unicode="&#x2047;" horiz-adv-x="1888" d="M75 1219v188q186 113 390 113q185 0 295 -97q112 -97 112 -256q0 -76 -36 -145q-37 -70 -126 -154l-88 -86q-46 -46 -65.5 -72.5t-28.5 -52.5q-12 -42 -12 -133v-123h-191v154q0 103 28 166q30 67 118 151l90 89q108 101 108 196q0 89 -66 144q-64 55 -173 55 q-156 0 -355 -137zM319 0v254h203v-254h-203zM1018 1219v188q186 113 390 113q185 0 295 -97q112 -97 112 -256q0 -76 -36 -145q-37 -70 -126 -154l-88 -86q-79 -79 -94 -125q-12 -42 -12 -133v-123h-191v154q0 103 28 166q30 67 118 151l90 89q108 101 108 196 q0 89 -66 144q-64 55 -173 55q-156 0 -355 -137zM1262 0v254h203v-254h-203z" />
<glyph unicode="&#x2048;" horiz-adv-x="1501" d="M147 1219v188q186 113 390 113q185 0 295 -97q112 -97 112 -256q0 -76 -36 -145q-37 -70 -126 -154l-88 -86q-46 -46 -65.5 -72.5t-28.5 -52.5q-12 -42 -12 -133v-123h-191v154q0 103 28 166q30 67 118 151l90 89q108 101 108 196q0 89 -66 144q-64 55 -173 55 q-156 0 -355 -137zM391 0v254h203v-254h-203zM1151 0v254h203v-254h-203zM1151 838v655h203v-655l-20 -357h-162z" />
<glyph unicode="&#x2049;" horiz-adv-x="1501" d="M148 0v254h203v-254h-203zM148 838v655h203v-655l-20 -357h-162zM557 1219v188q186 113 390 113q185 0 295 -97q112 -97 112 -256q0 -76 -36 -145q-37 -70 -126 -154l-88 -86q-46 -46 -65.5 -72.5t-28.5 -52.5q-12 -42 -12 -133v-123h-191v154q0 103 28 166 q30 67 118 151l90 89q108 101 108 196q0 89 -66 144q-64 55 -173 55q-156 0 -355 -137zM801 0v254h203v-254h-203z" />
<glyph unicode="&#x204a;" horiz-adv-x="1018" d="M100 947v170q150 -16 388 -16q257 0 430 16l-8 -128l-288 -1240h-152l264 1198q-234 -30 -634 0z" />
<glyph unicode="&#x204b;" d="M236 -197v1690h448q214 0 345 -116q130 -115 130 -306q0 -184 -118 -295t-332 -127v-846h-142v1567h-190v-1567h-141z" />
<glyph unicode="&#x204c;" horiz-adv-x="1024" d="M216 747q0 123 86 209q88 86 213 86v-592h-2q-125 0 -211 86t-86 211zM633 450v592h175v-591z" />
<glyph unicode="&#x204d;" horiz-adv-x="1024" d="M216 451v591h175v-592zM509 450v592q126 0 212 -86q87 -85 87 -209q0 -125 -86 -211t-211 -86h-2z" />
<glyph unicode="&#x204e;" horiz-adv-x="1024" d="M61 214l359 195l-359 194l58 99l336 -203v377h114v-377l336 203l58 -99l-359 -194l359 -195l-58 -98l-336 203v-377h-114v377l-336 -203z" />
<glyph unicode="&#x204f;" horiz-adv-x="690" d="M285 82v172h211v-172l82 -320h-129zM285 805v254h211v-254h-211z" />
<glyph unicode="&#x2050;" horiz-adv-x="1646" d="M-89 -123q456 -208 911 -208q457 0 913 208v-126q-470 -236 -913 -236t-911 236v126zM-89 1540v126q468 236 911 236t913 -236v-126q-456 208 -913 208q-455 0 -911 -208z" />
<glyph unicode="&#x2051;" horiz-adv-x="1024" d="M61 259l359 195l-359 194l58 99l336 -203v377h114v-377l336 203l58 -99l-359 -194l359 -195l-58 -98l-336 203v-377h-114v377l-336 -203zM61 1241l359 195l-359 194l58 99l336 -203v377h114v-377l336 203l58 -99l-359 -194l359 -195l-58 -98l-336 203v-377h-114v377 l-336 -203z" />
<glyph unicode="&#x2052;" horiz-adv-x="921" d="M145 -190l520 1683h170l-520 -1683h-170zM181 1096v254h211v-254h-211zM617 0v254h211v-254h-211z" />
<glyph unicode="&#x2053;" horiz-adv-x="2048" d="M100 467v178q153 77 273 113q117 35 261 35q176 0 386 -60q12 -4 22 -6q26 -7 33 -8q234 -62 373 -62q129 0 237 38q107 37 263 122v-178q-153 -77 -273 -113q-114 -34 -261 -34q-146 0 -384 59q-16 5 -24 6q-6 1 -33 8q-234 62 -373 62q-132 0 -242 -39 q-105 -36 -258 -121z" />
<glyph unicode="&#x2054;" horiz-adv-x="1646" d="M-89 -365q468 236 911 236t913 -236v-126q-456 208 -913 208q-455 0 -911 -208v126z" />
<glyph unicode="&#x2055;" horiz-adv-x="1716" d="M312 666v160h353l-250 250l113 114l250 -251v354h160v-354l250 250l113 -113l-250 -250h353v-160h-353l250 -249l-113 -114l-250 250v-353h-160v352l-249 -249l-113 114l249 249h-353z" />
<glyph unicode="&#x2056;" horiz-adv-x="1200" d="M250 656v200h200v-200h-200zM750 306v200h200v-200h-200zM750 1006v200h200v-200h-200z" />
<glyph unicode="&#x2057;" horiz-adv-x="1358" d="M40 1120l173 373h203l-289 -373h-87zM340 1120l173 373h203l-289 -373h-87zM640 1120l173 373h203l-289 -373h-87zM940 1120l173 373h203l-289 -373h-87z" />
<glyph unicode="&#x2058;" horiz-adv-x="1716" d="M358 656v200h200v-200h-200zM758 256v200h200v-200h-200zM758 1056v200h200v-200h-200zM1158 656v200h200v-200h-200z" />
<glyph unicode="&#x2059;" horiz-adv-x="1716" d="M358 1046v200h200v-200h-200zM378 266v200h200v-200h-200zM758 646v200h200v-200h-200zM1158 246v200h200v-200h-200zM1158 1046v200h200v-200h-200z" />
<glyph unicode="&#x205a;" horiz-adv-x="651" d="M219 0v254h211v-254h-211zM219 1239v254h211v-254h-211z" />
<glyph unicode="&#x205b;" horiz-adv-x="1633" d="M100 619v254h211v-254h-211zM711 -29h211v-254h-211v254zM711 1521v254h211v-254h-211zM1322 619v254h211v-254h-211z" />
<glyph unicode="&#x205c;" horiz-adv-x="1716" d="M112 666v160h666v667h160v-667h666v-160h-666v-666h-160v666h-666zM358 1046v200h200v-200h-200zM378 266v200h200v-200h-200zM1158 246v200h200v-200h-200zM1158 1046v200h200v-200h-200z" />
<glyph unicode="&#x205d;" horiz-adv-x="651" d="M219 80v254h211v-254h-211zM219 584v254h211v-254h-211zM219 1088v254h211v-254h-211z" />
<glyph unicode="&#x205e;" horiz-adv-x="651" d="M219 17v254h211v-254h-211zM219 395v254h211v-254h-211zM219 771v254h211v-254h-211zM219 1145v254h211v-254h-211z" />
<glyph unicode="&#x205f;" horiz-adv-x="455" />
<glyph unicode="&#x2060;" horiz-adv-x="0" />
<glyph unicode="&#x2061;" horiz-adv-x="0" />
<glyph unicode="&#x2062;" horiz-adv-x="0" />
<glyph unicode="&#x2063;" horiz-adv-x="0" />
<glyph unicode="&#x2064;" horiz-adv-x="0" />
<glyph unicode="&#x206a;" horiz-adv-x="0" />
<glyph unicode="&#x206b;" horiz-adv-x="0" />
<glyph unicode="&#x206c;" horiz-adv-x="0" />
<glyph unicode="&#x206d;" horiz-adv-x="0" />
<glyph unicode="&#x206e;" horiz-adv-x="0" />
<glyph unicode="&#x206f;" horiz-adv-x="0" />
<glyph unicode="&#x20a0;" horiz-adv-x="1796" d="M86 913q0 270 146 425q147 156 401 156q201 0 356 -107v-159q-150 141 -347 141q-192 0 -294 -117t-102 -339t102 -339t294 -117q197 0 347 141v522h708v-128h-557v-331h534v-128h-534v-405h570v-128h-721v440q-157 -108 -356 -108q-254 0 -401 155q-146 157 -146 426z " />
<glyph unicode="&#x20a1;" d="M115 745q0 360 178 568q161 186 424 205l21 75h156l-22 -78q66 -8 127 -27l30 105h155l-47 -165q42 -23 77 -50v-213q-61 63 -122 101l-319 -1129h18q238 0 423 189v-211q-194 -144 -434 -144q-19 0 -53 2l-18 -63h-155l25 87q-66 18 -122 48l-38 -135h-155l65 230 q-19 18 -36 39q-178 206 -178 566zM309 745q0 -238 82 -386l276 982q-145 -31 -233 -143q-125 -158 -125 -453zM507 222q51 -39 118 -61l330 1169q-58 18 -129 23z" />
<glyph unicode="&#x20a2;" d="M96 745q0 361 178 567q178 208 489 208q245 0 435 -142v-213q-185 189 -424 189q-234 0 -358.5 -156.5t-124.5 -452.5t124 -451q95 -117 247 -147v861h152v-157q94 181 312 181q36 0 76 -9l1 -170q-52 31 -122 31q-129 0 -198 -91t-69 -262v-393q98 8 185 46 q104 45 199 142v-211q-192 -143 -435 -143q-311 0 -489 207q-178 206 -178 566z" />
<glyph unicode="&#x20a3;" d="M133 313v69h236v1111h858v-170h-656v-440h592v-170h-592v-331h250v-69h-250v-313h-202v313h-236z" />
<glyph unicode="&#x20a4;" d="M129 0v170h236v322h-191v143h191v143h-199v143h199v95q0 261 107 382.5t339 121.5q129 0 291 -60v-182q-151 82 -273 82q-147 0 -206 -78q-58 -76 -58 -289v-72h391v-143h-391v-143h399v-143h-399v-322h557v-170h-993z" />
<glyph unicode="&#x20a5;" horiz-adv-x="1995" d="M186 0v1120h185v-174q61 102 151 152q88 49 209 49t207 -62q52 -36 91 -100l133 325h170l-88 -214q92 51 212 51q175 0 270 -123t95 -348v-676h-185v670q0 161 -57 239t-174 78q-143 0 -226 -95t-83 -259v-633h-185v285l-195 -475h-170l365 888q-5 142 -57 212 q-57 77 -176 77q-141 0 -224 -95q-83 -98 -83 -259v-633h-185z" />
<glyph unicode="&#x20a6;" horiz-adv-x="1532" d="M117 550v123h195v147h-195v123h195v550h272l211 -550h229v550h196v-550h195v-123h-195v-147h195v-123h-195v-550h-272l-211 550h-229v-550h-196v550h-195zM508 673h182l-56 147h-126v-147zM508 943h79l-79 206v-206zM842 820l56 -147h126v147h-182zM945 550l79 -206v206 h-79z" />
<glyph unicode="&#x20a7;" horiz-adv-x="2606" d="M201 0v1493h429q236 0 358 -113q87 -83 111 -218h81v318h174v-318h357v-143h-357v-608q0 -136 35 -176q36 -39 144 -39h171v35q191 -106 374 -106q122 0 188 44.5t66 125.5q0 75 -48 115q-45 39 -208 77l-60 15q-161 36 -232.5 110.5t-71.5 204.5q0 158 105.5 244 t299.5 86q193 0 337 -60v-174q-149 80 -317 80q-258 0 -258 -168q0 -64 46 -101q47 -36 186 -69l59 -14q185 -42 262 -119q78 -76 78 -213q0 -155 -117 -247q-115 -91 -319 -91q-167 0 -370 70v1h-171q-201 0 -277 79t-76 290v608h-73q-6 -199 -119 -306 q-122 -113 -358 -113h-239v-600h-190zM391 766h239q133 0 205.5 73t72.5 208q0 134 -72.5 207t-205.5 73h-239v-561z" />
<glyph unicode="&#x20a8;" horiz-adv-x="2199" d="M201 0v1493h456q508 0 508 -430q0 -141 -65.5 -234t-190.5 -129q127 -42 250 -292l91 -180q95 -50 194 -76q99 -27 196 -27q129 0 199.5 44.5t70.5 125.5q0 75 -51 115q-48 39 -221 77l-64 15q-171 36 -247 110.5t-76 204.5q0 158 112 244t318 86t358 -60v-174 q-157 80 -336 80q-274 0 -274 -168q0 -64 49 -101q50 -36 197 -69l63 -14q194 -42 278 -119q83 -77 83 -213q0 -156 -124 -247q-122 -91 -339 -91q-90 0 -187 18q-45 8 -89 18l4 -7h-217l-191 383q-73 149 -144 199q-68 49 -189 49h-220v-631h-202zM403 797h254 q146 0 220.5 67.5t74.5 198.5q0 264 -295 264h-254v-530z" />
<glyph unicode="&#x20a9;" horiz-adv-x="2025" d="M59 896v143h123l-30 117h-93v143h58l-49 194h204l48 -194h531l48 194h227l48 -194h531l48 194h205l-49 -194h57v-143h-93l-29 -117h122v-143h-158l-225 -896h-254l-218 896h-195l-220 -896h-254l-224 896h-159zM356 1156l29 -117h401l29 117h-459zM421 896l165 -665 l165 665h-330zM951 1039h125l-28 117h-68zM1210 1156l29 -117h401l29 117h-459zM1275 896l165 -665l165 665h-330z" />
<glyph unicode="&#x20aa;" horiz-adv-x="1606" d="M95 -29v1519l519 3q255 0 386 -149t131 -441v-367h-184v342q0 241 -79 345q-78 106 -254 106h-335v-1358h-184zM485 561v367h184v-342q0 -240 78 -346q79 -105 255 -105h339l-4 1358h184l-4 -1522h-515q-255 0 -386 149t-131 441z" />
<glyph unicode="&#x20ab;" horiz-adv-x="1300" d="M129 559q0 265 127 426q128 162 331 162q245 0 359 -197v334h-326v125h326v147h184v-147h154v-125h-154v-1284h-184v168q-114 -197 -359 -197q-203 0 -331 162q-127 161 -127 426zM319 559q0 -203 83 -319q84 -115 230 -115t230 115t84 319q0 203 -84 318 q-84 116 -230 116t-230 -116q-83 -116 -83 -318zM351 -172h598v-148h-598v148z" />
<glyph unicode="&#x20ac;" d="M0 520l55 123h139q0 14 -0.5 46.5t-0.5 55.5q0 25 0.5 58t0.5 47h-194l55 123h156q41 257 195 402t391 145q197 0 370 -142v-213q-92 106 -176 150q-84 45 -186 45q-157 0 -258 -100t-133 -287h577l-55 -123h-538q-3 -32 -3 -105q0 -70 3 -102h446l-56 -123h-374 q32 -187 133.5 -288t257.5 -101q102 0 186 45q84 44 176 150v-211q-179 -144 -370 -144q-238 0 -392 145t-194 404h-211z" />
<glyph unicode="&#x20ad;" d="M40 737v115h151v641h189v-631l629 631h243l-640 -641h426v-115h-424l688 -737h-249l-673 719v-719h-189v737h-151z" />
<glyph unicode="&#x20ae;" d="M20 1323v170h1263v-170h-530v-271l229 161l80 -111l-309 -216v-136l230 162l80 -111l-310 -217v-584h-203v442l-231 -161l-77 110l308 217v136l-232 -162l-77 110l309 217v414h-530z" />
<glyph unicode="&#x20af;" horiz-adv-x="2606" d="M208 198q0 93 66 159q66 67 171 67q75 0 147 -28q14 46 23 90l180 845q-47 -11 -78 -30q-36 -24 -59 -55q-22 -30 -38 -87l-174 53q53 169 193 244q118 64 294 64q199 0 350.5 -60.5t247.5 -171.5q167 -194 167 -472q0 -116 -28 -253q-25 -128 -92 -256 q-72 -139 -194 -231q-66 -52 -144 -76q-96 -29 -170 -29q-62 0 -108 9q-80 15 -181 74q-62 36 -79 48l-15 10q-18 -34 -39 -57q-78 -84 -170 -84q-116 0 -193 65q-77 66 -77 162zM380 195q0 -24 23 -39q23 -14 55 -14q45 0 74 62q-40 34 -87 34q-38 0 -52 -14 q-13 -13 -13 -29zM779 281l40 -27q82 -55 134 -78q56 -25 110 -25q109 0 185 67q77 68 134 177q44 83 72 210q24 106 24 206t-30 193q-31 96 -87 164q-132 156 -359 170l-177 -869q-26 -126 -46 -188zM1615 -414l162 720q34 151 96 256q49 82 124 136q74 55 172 55 q74 0 135.5 -29t98.5 -80q65 -89 65 -234q0 -118 -48 -219q-49 -103 -130 -158q-92 -63 -178 -63q-55 0 -117 32q-46 22 -77 73l-118 -530zM1991 296q0 -52 23 -93q32 -54 94 -54q69 0 120 68q20 27 39 81q17 51 17 107q0 84 -29 131q-12 20 -36 32q-20 11 -54 11 q-87 0 -136 -106q-11 -23 -28 -81q-10 -33 -10 -96z" />
<glyph unicode="&#x20b0;" d="M46 612q147 240 258 240q124 0 188 -78q89 -107 122 -107q48 0 103 66q-227 177 -227 431q0 171 80 260q88 96 225 96q115 0 213 -96q84 -82 84 -260q0 -226 -107 -398q181 -163 181 -354q0 -194 -126 -328q-107 -113 -358 -113v162q133 0 225 74q73 60 73 207 q0 88 -119 202q-137 -126 -246 -126q-113 0 -187 104q-49 70 -103 70q-52 0 -140 -148zM680 1164q0 -166 154 -283q68 109 68 283q0 86 -27 135q-34 63 -85 63q-52 0 -85 -63q-25 -47 -25 -135z" />
<glyph unicode="&#x20b1;" d="M68 888v116h83v86h-82v116h82v287h456q250 0 380 -113q75 -66 107 -174h92v-116h-72q2 -43 0 -86h71v-116h-90q-32 -108 -108 -175q-130 -113 -380 -113h-254v-600h-202v888h-83zM353 766h254q142 0 218 73q23 23 39 49h-511v-122zM353 1004h547q5 43 0 86h-547v-86z M353 1206h511q-16 27 -39 48q-76 73 -218 73h-254v-121z" />
<glyph unicode="&#x20b2;" d="M93 745q0 365 168 571q136 165 360 197v143h140v-137q109 -5 201 -35q112 -36 206 -106v-215q-95 95 -202 143q-97 43 -205 48v-1217q74 1 141 19q72 18 129 57v401h-120v166h290v-641q-100 -83 -219 -125q-103 -37 -221 -42v-137h-140v143q-223 32 -360 198 q-168 204 -168 569zM298 745q0 -302 111 -455q80 -109 212 -140v1191q-132 -31 -212 -140q-111 -153 -111 -456z" />
<glyph unicode="&#x20b3;" d="M16 0l181 520h-146v123h189l73 207h-262v123h305l181 520h229l181 -520h304v-123h-261l71 -207h190v-123h-147l181 -520h-210l-170 520h-506l-170 -520h-213zM439 643h425l-68 207h-290zM546 973h210l-105 321z" />
<glyph unicode="&#x20b4;" horiz-adv-x="1585" d="M117 550v123h231q4 7 26 29q75 74 202 118h-459v123h914q5 3 13.5 9t11.5 8q59 44 59 150q0 118 -89.5 182t-254.5 64q-186 0 -414 -109v197q227 76 437 76q244 0 384 -114t140 -312q0 -86 -25 -151h175v-123h-259q-104 -92 -319 -134l-67 -13h645v-123h-941 q-49 -58 -49 -153q0 -126 94 -194t267 -68q225 0 473 139v-208q-258 -95 -473 -95q-281 0 -426.5 112t-145.5 329q0 75 18 138h-168z" />
<glyph unicode="&#x20b5;" horiz-adv-x="1313" d="M170 643v17q0 322 212 525q123 117 299 139v232h101v-226q94 -2 182 -36q90 -34 179 -106v-213q-92 106 -175 150q-86 45 -186 45v-1039q100 0 186 45q83 44 175 150v-211q-88 -71 -181 -108q-88 -35 -180 -36v-272h-100v277q-184 22 -300 140q-212 215 -212 527z M390 520q26 -181 133 -288q67 -68 159 -90l-1 1017q-89 -22 -158 -89q-118 -116 -133 -287q-14 -161 0 -263z" />
<glyph unicode="&#x2122;" horiz-adv-x="2048" d="M295 1399v94h518v-94h-203v-484h-114v484h-201zM926 915v578h172l174 -256l164 256h170v-578h-113v484l-195 -303h-55l-203 303v-484h-114z" />
<glyph unicode="&#x25ca;" horiz-adv-x="1012" d="M6 592l500 1061l500 -1061l-500 -1069zM121 592l385 -825l385 825l-385 817z" />
<glyph unicode="&#xe000;" horiz-adv-x="1120" d="M0 0v1120h1120v-1120h-1120z" />
<glyph unicode="&#xfb01;" horiz-adv-x="1290" d="M47 977v143h176v78q0 183 86.5 270.5t265.5 87.5h185v-153h-176q-99 0 -138 -40q-38 -41 -38 -144v-99h690v-1120h-185v977h-505v-977h-185v977h-176zM913 1321v233h185v-233h-185z" />
<glyph unicode="&#xfb02;" horiz-adv-x="1290" d="M47 977v143h176v78q0 187 87 272.5t276 85.5h512v-1556h-185v1403h-329q-99 0 -138 -40q-38 -41 -38 -144v-99h303v-143h-303v-977h-185v977h-176z" />
</font>
</defs>
</svg>
